<mxfile host="app.diagrams.net" agent="Mozilla/5.0 (X11; Linux x86_64) AppleWebKit/537.36 (KHTML, like Gecko) Chrome/125.0.0.0 Safari/537.36" version="26.1.2">
  <diagram id="C5RBs43oDa-KdzZeNtuy" name="Page-1">
    <mxGraphModel dx="2897" dy="3433" grid="1" gridSize="10" guides="1" tooltips="1" connect="1" arrows="1" fold="1" page="1" pageScale="1" pageWidth="827" pageHeight="1169" background="#ffffff" math="0" shadow="0">
      <root>
        <mxCell id="WIyWlLk6GJQsqaUBKTNV-0" />
        <mxCell id="WIyWlLk6GJQsqaUBKTNV-1" parent="WIyWlLk6GJQsqaUBKTNV-0" />
        <mxCell id="QDZcUWIWedcfiBCgo4B5-206" value="Db volume&amp;nbsp; (- db-data:/var/lib/mysql)" style="shape=datastore;whiteSpace=wrap;html=1;labelBackgroundColor=none;labelBorderColor=default;fillColor=light-dark(#99CCFF,#EDEDED);" parent="WIyWlLk6GJQsqaUBKTNV-1" vertex="1">
          <mxGeometry x="-222.5" y="470" width="145" height="150" as="geometry" />
        </mxCell>
        <mxCell id="Z3fMapQdSAwZX1owhjYI-29" value="" style="rounded=0;whiteSpace=wrap;html=1;gradientColor=#004C99;" parent="WIyWlLk6GJQsqaUBKTNV-1" vertex="1">
          <mxGeometry x="35" y="-237.5" width="125" height="270" as="geometry" />
        </mxCell>
        <mxCell id="Z3fMapQdSAwZX1owhjYI-28" value="" style="rounded=0;whiteSpace=wrap;html=1;gradientColor=#66B2FF;" parent="WIyWlLk6GJQsqaUBKTNV-1" vertex="1">
          <mxGeometry x="-360" y="-235" width="380" height="265" as="geometry" />
        </mxCell>
        <mxCell id="Z3fMapQdSAwZX1owhjYI-17" value="" style="rounded=0;whiteSpace=wrap;html=1;gradientColor=#CCCC00;" parent="WIyWlLk6GJQsqaUBKTNV-1" vertex="1">
          <mxGeometry x="620" y="-190" width="120" height="260" as="geometry" />
        </mxCell>
        <mxCell id="Z3fMapQdSAwZX1owhjYI-14" value="" style="whiteSpace=wrap;html=1;aspect=fixed;gradientColor=#FFFF66;" parent="WIyWlLk6GJQsqaUBKTNV-1" vertex="1">
          <mxGeometry x="300" y="-235" width="310" height="310" as="geometry" />
        </mxCell>
        <mxCell id="Z3fMapQdSAwZX1owhjYI-5" value="" style="rounded=0;whiteSpace=wrap;html=1;gradientColor=light-dark(#97D077,#EDEDED);" parent="WIyWlLk6GJQsqaUBKTNV-1" vertex="1">
          <mxGeometry x="1060" y="-235" width="210" height="280" as="geometry" />
        </mxCell>
        <mxCell id="Z3fMapQdSAwZX1owhjYI-3" value="" style="rounded=0;whiteSpace=wrap;html=1;gradientColor=#63FF9C;" parent="WIyWlLk6GJQsqaUBKTNV-1" vertex="1">
          <mxGeometry x="750" y="-240" width="290" height="290" as="geometry" />
        </mxCell>
        <mxCell id="VuhiG2OMYxqmFF7oU0-H-84" value="" style="rounded=0;whiteSpace=wrap;html=1;fillColor=#FFFFFF;strokeColor=#d79b00;gradientColor=#FFF2CC;" parent="WIyWlLk6GJQsqaUBKTNV-1" vertex="1">
          <mxGeometry x="-250" y="-370" width="1440" height="120" as="geometry" />
        </mxCell>
        <mxCell id="VuhiG2OMYxqmFF7oU0-H-0" value="" style="rounded=0;whiteSpace=wrap;html=1;strokeColor=#CCFF99;dashed=1;gradientColor=#CCFF99;" parent="WIyWlLk6GJQsqaUBKTNV-1" vertex="1">
          <mxGeometry x="-250" y="-890" width="930" height="450" as="geometry" />
        </mxCell>
        <mxCell id="QDZcUWIWedcfiBCgo4B5-194" value="sets up services: ngix, mariadb, wordpress.&lt;div&gt;&lt;br&gt;&lt;/div&gt;&lt;div&gt;build: context:. dockerfile: path/Dockerfile-service&lt;/div&gt;&lt;div&gt;sets up volumes&lt;/div&gt;&lt;div&gt;&lt;br&gt;&lt;/div&gt;&lt;div&gt;network line must be present here&lt;/div&gt;" style="shape=ext;double=1;whiteSpace=wrap;html=1;aspect=fixed;align=right;verticalAlign=top;" parent="WIyWlLk6GJQsqaUBKTNV-1" vertex="1">
          <mxGeometry x="320" y="-884" width="300" height="300" as="geometry" />
        </mxCell>
        <mxCell id="QDZcUWIWedcfiBCgo4B5-57" value="This runs the docker-compose" style="shape=ext;double=1;rounded=0;whiteSpace=wrap;html=1;" parent="WIyWlLk6GJQsqaUBKTNV-1" vertex="1">
          <mxGeometry x="-55" y="-1206" width="120" height="180" as="geometry" />
        </mxCell>
        <mxCell id="WIyWlLk6GJQsqaUBKTNV-3" value="NGINX/" style="rounded=1;whiteSpace=wrap;html=1;fontSize=12;glass=0;strokeWidth=1;shadow=0;" parent="WIyWlLk6GJQsqaUBKTNV-1" vertex="1">
          <mxGeometry x="740" y="-330" width="120" height="40" as="geometry" />
        </mxCell>
        <mxCell id="WIyWlLk6GJQsqaUBKTNV-6" value="Write Dockerfiles" style="rhombus;whiteSpace=wrap;html=1;shadow=0;fontFamily=Helvetica;fontSize=12;align=center;strokeWidth=1;spacing=6;spacingTop=-4;" parent="WIyWlLk6GJQsqaUBKTNV-1" vertex="1">
          <mxGeometry x="530" y="-420" width="100" height="80" as="geometry" />
        </mxCell>
        <mxCell id="WIyWlLk6GJQsqaUBKTNV-11" value="MariaDB/" style="rounded=1;whiteSpace=wrap;html=1;fontSize=12;glass=0;strokeWidth=1;shadow=0;" parent="WIyWlLk6GJQsqaUBKTNV-1" vertex="1">
          <mxGeometry x="-220" y="-360" width="120" height="40" as="geometry" />
        </mxCell>
        <mxCell id="QDZcUWIWedcfiBCgo4B5-4" value="" style="endArrow=classic;html=1;rounded=0;entryX=0.7;entryY=0.05;entryDx=0;entryDy=0;entryPerimeter=0;exitX=0;exitY=1;exitDx=0;exitDy=0;" parent="WIyWlLk6GJQsqaUBKTNV-1" source="WIyWlLk6GJQsqaUBKTNV-6" target="WIyWlLk6GJQsqaUBKTNV-11" edge="1">
          <mxGeometry width="50" height="50" relative="1" as="geometry">
            <mxPoint x="390" y="270" as="sourcePoint" />
            <mxPoint x="440" y="220" as="targetPoint" />
          </mxGeometry>
        </mxCell>
        <mxCell id="QDZcUWIWedcfiBCgo4B5-5" value="" style="endArrow=classic;html=1;rounded=0;exitX=0.58;exitY=0.95;exitDx=0;exitDy=0;exitPerimeter=0;entryX=0.825;entryY=0.033;entryDx=0;entryDy=0;entryPerimeter=0;" parent="WIyWlLk6GJQsqaUBKTNV-1" target="VuhiG2OMYxqmFF7oU0-H-88" edge="1">
          <mxGeometry width="50" height="50" relative="1" as="geometry">
            <mxPoint x="575.66" y="-340" as="sourcePoint" />
            <mxPoint x="500.00468937875775" y="144" as="targetPoint" />
          </mxGeometry>
        </mxCell>
        <mxCell id="QDZcUWIWedcfiBCgo4B5-6" value="" style="endArrow=classic;html=1;rounded=0;entryX=0;entryY=0.25;entryDx=0;entryDy=0;" parent="WIyWlLk6GJQsqaUBKTNV-1" source="WIyWlLk6GJQsqaUBKTNV-6" target="WIyWlLk6GJQsqaUBKTNV-3" edge="1">
          <mxGeometry width="50" height="50" relative="1" as="geometry">
            <mxPoint x="390" y="270" as="sourcePoint" />
            <mxPoint x="440" y="220" as="targetPoint" />
          </mxGeometry>
        </mxCell>
        <mxCell id="QDZcUWIWedcfiBCgo4B5-7" value="Makefile" style="rhombus;whiteSpace=wrap;html=1;" parent="WIyWlLk6GJQsqaUBKTNV-1" vertex="1">
          <mxGeometry x="-35" y="-1198" width="80" height="40" as="geometry" />
        </mxCell>
        <mxCell id="QDZcUWIWedcfiBCgo4B5-8" value="docker-compose.yml" style="rhombus;whiteSpace=wrap;html=1;" parent="WIyWlLk6GJQsqaUBKTNV-1" vertex="1">
          <mxGeometry x="370" y="-764" width="90" height="100" as="geometry" />
        </mxCell>
        <mxCell id="QDZcUWIWedcfiBCgo4B5-10" value="run containers" style="shape=hexagon;perimeter=hexagonPerimeter2;whiteSpace=wrap;html=1;fixedSize=1;" parent="WIyWlLk6GJQsqaUBKTNV-1" vertex="1">
          <mxGeometry x="-390" y="200" width="120" height="30" as="geometry" />
        </mxCell>
        <mxCell id="QDZcUWIWedcfiBCgo4B5-14" value="only without ngix" style="shape=document;whiteSpace=wrap;html=1;boundedLbl=1;" parent="WIyWlLk6GJQsqaUBKTNV-1" vertex="1">
          <mxGeometry x="-360" y="295" width="120" height="80" as="geometry" />
        </mxCell>
        <mxCell id="QDZcUWIWedcfiBCgo4B5-15" value="it must be installed and configured. only without ngix" style="shape=document;whiteSpace=wrap;html=1;boundedLbl=1;" parent="WIyWlLk6GJQsqaUBKTNV-1" vertex="1">
          <mxGeometry x="460" y="340" width="120" height="80" as="geometry" />
        </mxCell>
        <mxCell id="QDZcUWIWedcfiBCgo4B5-16" value="With TLSV1.2 or TLSV1.3 only" style="shape=document;whiteSpace=wrap;html=1;boundedLbl=1;" parent="WIyWlLk6GJQsqaUBKTNV-1" vertex="1">
          <mxGeometry x="1140" y="175" width="120" height="80" as="geometry" />
        </mxCell>
        <mxCell id="QDZcUWIWedcfiBCgo4B5-17" value="" style="endArrow=none;dashed=1;html=1;dashPattern=1 3;strokeWidth=2;rounded=0;entryX=0.667;entryY=-0.012;entryDx=0;entryDy=0;entryPerimeter=0;exitX=0;exitY=1;exitDx=0;exitDy=0;" parent="WIyWlLk6GJQsqaUBKTNV-1" source="QDZcUWIWedcfiBCgo4B5-28" target="QDZcUWIWedcfiBCgo4B5-14" edge="1">
          <mxGeometry width="50" height="50" relative="1" as="geometry">
            <mxPoint x="390" y="270" as="sourcePoint" />
            <mxPoint x="440" y="220" as="targetPoint" />
          </mxGeometry>
        </mxCell>
        <mxCell id="QDZcUWIWedcfiBCgo4B5-18" value="" style="endArrow=none;dashed=1;html=1;dashPattern=1 3;strokeWidth=2;rounded=0;entryX=0.975;entryY=-0.025;entryDx=0;entryDy=0;entryPerimeter=0;exitX=0.342;exitY=1.033;exitDx=0;exitDy=0;exitPerimeter=0;" parent="WIyWlLk6GJQsqaUBKTNV-1" source="QDZcUWIWedcfiBCgo4B5-27" target="QDZcUWIWedcfiBCgo4B5-15" edge="1">
          <mxGeometry width="50" height="50" relative="1" as="geometry">
            <mxPoint x="390" y="270" as="sourcePoint" />
            <mxPoint x="440" y="220" as="targetPoint" />
          </mxGeometry>
        </mxCell>
        <mxCell id="QDZcUWIWedcfiBCgo4B5-19" value="" style="endArrow=none;dashed=1;html=1;dashPattern=1 3;strokeWidth=2;rounded=0;entryX=0.583;entryY=0.933;entryDx=0;entryDy=0;exitX=0.008;exitY=0.025;exitDx=0;exitDy=0;exitPerimeter=0;entryPerimeter=0;" parent="WIyWlLk6GJQsqaUBKTNV-1" source="QDZcUWIWedcfiBCgo4B5-16" target="QDZcUWIWedcfiBCgo4B5-26" edge="1">
          <mxGeometry width="50" height="50" relative="1" as="geometry">
            <mxPoint x="390" y="270" as="sourcePoint" />
            <mxPoint x="440" y="220" as="targetPoint" />
          </mxGeometry>
        </mxCell>
        <mxCell id="QDZcUWIWedcfiBCgo4B5-20" value="" style="endArrow=classic;html=1;rounded=0;exitX=1;exitY=0.5;exitDx=0;exitDy=0;" parent="WIyWlLk6GJQsqaUBKTNV-1" source="QDZcUWIWedcfiBCgo4B5-7" target="QDZcUWIWedcfiBCgo4B5-8" edge="1">
          <mxGeometry width="50" height="50" relative="1" as="geometry">
            <mxPoint x="390" y="270" as="sourcePoint" />
            <mxPoint x="440" y="220" as="targetPoint" />
          </mxGeometry>
        </mxCell>
        <mxCell id="QDZcUWIWedcfiBCgo4B5-23" value="" style="endArrow=classic;html=1;rounded=0;exitX=0.575;exitY=1;exitDx=0;exitDy=0;exitPerimeter=0;entryX=0.558;entryY=0.067;entryDx=0;entryDy=0;entryPerimeter=0;" parent="WIyWlLk6GJQsqaUBKTNV-1" source="QDZcUWIWedcfiBCgo4B5-29" target="QDZcUWIWedcfiBCgo4B5-28" edge="1">
          <mxGeometry width="50" height="50" relative="1" as="geometry">
            <mxPoint x="390" y="270" as="sourcePoint" />
            <mxPoint x="380" y="340" as="targetPoint" />
          </mxGeometry>
        </mxCell>
        <mxCell id="QDZcUWIWedcfiBCgo4B5-24" value="" style="endArrow=classic;html=1;rounded=0;exitX=0.5;exitY=1;exitDx=0;exitDy=0;" parent="WIyWlLk6GJQsqaUBKTNV-1" source="QDZcUWIWedcfiBCgo4B5-195" target="QDZcUWIWedcfiBCgo4B5-27" edge="1">
          <mxGeometry width="50" height="50" relative="1" as="geometry">
            <mxPoint x="390" y="270" as="sourcePoint" />
            <mxPoint x="590" y="480" as="targetPoint" />
          </mxGeometry>
        </mxCell>
        <mxCell id="QDZcUWIWedcfiBCgo4B5-25" value="" style="endArrow=classic;html=1;rounded=0;exitX=0.433;exitY=1.05;exitDx=0;exitDy=0;exitPerimeter=0;entryX=0.5;entryY=0;entryDx=0;entryDy=0;" parent="WIyWlLk6GJQsqaUBKTNV-1" source="QDZcUWIWedcfiBCgo4B5-196" target="QDZcUWIWedcfiBCgo4B5-26" edge="1">
          <mxGeometry width="50" height="50" relative="1" as="geometry">
            <mxPoint x="390" y="270" as="sourcePoint" />
            <mxPoint x="747" y="470" as="targetPoint" />
          </mxGeometry>
        </mxCell>
        <mxCell id="QDZcUWIWedcfiBCgo4B5-26" value="container" style="shape=process;whiteSpace=wrap;html=1;backgroundOutline=1;" parent="WIyWlLk6GJQsqaUBKTNV-1" vertex="1">
          <mxGeometry x="960" y="280" width="120" height="60" as="geometry" />
        </mxCell>
        <mxCell id="QDZcUWIWedcfiBCgo4B5-27" value="container" style="shape=process;whiteSpace=wrap;html=1;backgroundOutline=1;" parent="WIyWlLk6GJQsqaUBKTNV-1" vertex="1">
          <mxGeometry x="590" y="285" width="120" height="65" as="geometry" />
        </mxCell>
        <mxCell id="QDZcUWIWedcfiBCgo4B5-28" value="container" style="shape=process;whiteSpace=wrap;html=1;backgroundOutline=1;" parent="WIyWlLk6GJQsqaUBKTNV-1" vertex="1">
          <mxGeometry x="-210" y="190" width="120" height="60" as="geometry" />
        </mxCell>
        <mxCell id="QDZcUWIWedcfiBCgo4B5-30" value="volume that contains wordprtess database" style="shape=datastore;whiteSpace=wrap;html=1;" parent="WIyWlLk6GJQsqaUBKTNV-1" vertex="1">
          <mxGeometry x="710" y="-880" width="80" height="130" as="geometry" />
        </mxCell>
        <mxCell id="QDZcUWIWedcfiBCgo4B5-32" value="second volume that contains wordpress website files" style="shape=datastore;whiteSpace=wrap;html=1;" parent="WIyWlLk6GJQsqaUBKTNV-1" vertex="1">
          <mxGeometry x="710" y="-725" width="70" height="120" as="geometry" />
        </mxCell>
        <mxCell id="QDZcUWIWedcfiBCgo4B5-54" value="" style="shape=link;html=1;rounded=0;exitX=1;exitY=0.5;exitDx=0;exitDy=0;" parent="WIyWlLk6GJQsqaUBKTNV-1" source="QDZcUWIWedcfiBCgo4B5-36" target="QDZcUWIWedcfiBCgo4B5-27" edge="1">
          <mxGeometry width="100" relative="1" as="geometry">
            <mxPoint x="340" y="390" as="sourcePoint" />
            <mxPoint x="440" y="390" as="targetPoint" />
          </mxGeometry>
        </mxCell>
        <UserObject label="Link" link="https://github.com/sparklebutt/Inception/blob/main/flowchart/Makefile" id="QDZcUWIWedcfiBCgo4B5-56">
          <mxCell style="text;html=1;strokeColor=none;fillColor=none;whiteSpace=wrap;align=center;verticalAlign=middle;fontColor=#0000EE;fontStyle=4;" parent="WIyWlLk6GJQsqaUBKTNV-1" vertex="1">
            <mxGeometry x="-25" y="-1158" width="60" height="40" as="geometry" />
          </mxCell>
        </UserObject>
        <mxCell id="QDZcUWIWedcfiBCgo4B5-144" value="" style="line;strokeWidth=2;html=1;direction=south;" parent="WIyWlLk6GJQsqaUBKTNV-1" vertex="1">
          <mxGeometry x="-470" y="-450" width="6.11" height="22.5" as="geometry" />
        </mxCell>
        <mxCell id="QDZcUWIWedcfiBCgo4B5-193" value="" style="endArrow=classic;startArrow=classic;html=1;rounded=0;entryX=1;entryY=1;entryDx=0;entryDy=0;" parent="WIyWlLk6GJQsqaUBKTNV-1" source="WIyWlLk6GJQsqaUBKTNV-6" target="QDZcUWIWedcfiBCgo4B5-8" edge="1">
          <mxGeometry width="50" height="50" relative="1" as="geometry">
            <mxPoint x="540" y="-110" as="sourcePoint" />
            <mxPoint x="590" y="-160" as="targetPoint" />
          </mxGeometry>
        </mxCell>
        <mxCell id="QDZcUWIWedcfiBCgo4B5-197" value="" style="endArrow=classic;html=1;rounded=0;exitX=0.575;exitY=1;exitDx=0;exitDy=0;exitPerimeter=0;entryX=0.558;entryY=0.067;entryDx=0;entryDy=0;entryPerimeter=0;" parent="WIyWlLk6GJQsqaUBKTNV-1" source="WIyWlLk6GJQsqaUBKTNV-11" target="QDZcUWIWedcfiBCgo4B5-29" edge="1">
          <mxGeometry width="50" height="50" relative="1" as="geometry">
            <mxPoint x="224" y="20" as="sourcePoint" />
            <mxPoint x="222" y="294" as="targetPoint" />
          </mxGeometry>
        </mxCell>
        <mxCell id="QDZcUWIWedcfiBCgo4B5-29" value="docker image file" style="shape=hexagon;perimeter=hexagonPerimeter2;whiteSpace=wrap;html=1;fixedSize=1;" parent="WIyWlLk6GJQsqaUBKTNV-1" vertex="1">
          <mxGeometry x="-240" y="32.5" width="120" height="30" as="geometry" />
        </mxCell>
        <mxCell id="QDZcUWIWedcfiBCgo4B5-195" value="docker image file" style="shape=hexagon;perimeter=hexagonPerimeter2;whiteSpace=wrap;html=1;fixedSize=1;" parent="WIyWlLk6GJQsqaUBKTNV-1" vertex="1">
          <mxGeometry x="420" y="75" width="120" height="30" as="geometry" />
        </mxCell>
        <mxCell id="QDZcUWIWedcfiBCgo4B5-199" value="" style="endArrow=classic;html=1;rounded=0;exitX=0.908;exitY=1.1;exitDx=0;exitDy=0;exitPerimeter=0;entryX=0.5;entryY=0;entryDx=0;entryDy=0;" parent="WIyWlLk6GJQsqaUBKTNV-1" source="WIyWlLk6GJQsqaUBKTNV-3" target="QDZcUWIWedcfiBCgo4B5-196" edge="1">
          <mxGeometry width="50" height="50" relative="1" as="geometry">
            <mxPoint x="762" y="-8" as="sourcePoint" />
            <mxPoint x="760" y="470" as="targetPoint" />
          </mxGeometry>
        </mxCell>
        <mxCell id="QDZcUWIWedcfiBCgo4B5-196" value="docker image file" style="shape=hexagon;perimeter=hexagonPerimeter2;whiteSpace=wrap;html=1;fixedSize=1;" parent="WIyWlLk6GJQsqaUBKTNV-1" vertex="1">
          <mxGeometry x="825" y="50" width="120" height="30" as="geometry" />
        </mxCell>
        <mxCell id="QDZcUWIWedcfiBCgo4B5-200" value="volume that contains wordpress database&lt;div&gt;there must be 2 users&amp;nbsp;&lt;div&gt;user1 = boss&lt;/div&gt;&lt;div&gt;user2 = guest&lt;/div&gt;&lt;/div&gt;" style="shape=datastore;whiteSpace=wrap;html=1;" parent="WIyWlLk6GJQsqaUBKTNV-1" vertex="1">
          <mxGeometry x="-190" y="300" width="80" height="200" as="geometry" />
        </mxCell>
        <mxCell id="QDZcUWIWedcfiBCgo4B5-201" value="second volume that contains wordpress website files" style="shape=datastore;whiteSpace=wrap;html=1;" parent="WIyWlLk6GJQsqaUBKTNV-1" vertex="1">
          <mxGeometry x="630" y="440" width="110" height="120" as="geometry" />
        </mxCell>
        <mxCell id="QDZcUWIWedcfiBCgo4B5-203" value="" style="shape=link;html=1;rounded=0;exitX=1;exitY=0.5;exitDx=0;exitDy=0;entryX=0;entryY=0.5;entryDx=0;entryDy=0;" parent="WIyWlLk6GJQsqaUBKTNV-1" source="QDZcUWIWedcfiBCgo4B5-202" target="QDZcUWIWedcfiBCgo4B5-26" edge="1">
          <mxGeometry width="100" relative="1" as="geometry">
            <mxPoint x="580" y="270" as="sourcePoint" />
            <mxPoint x="740" y="270" as="targetPoint" />
          </mxGeometry>
        </mxCell>
        <mxCell id="QDZcUWIWedcfiBCgo4B5-204" value="" style="shape=link;html=1;rounded=0;exitX=1;exitY=0.5;exitDx=0;exitDy=0;entryX=0;entryY=0.5;entryDx=0;entryDy=0;" parent="WIyWlLk6GJQsqaUBKTNV-1" source="QDZcUWIWedcfiBCgo4B5-27" target="QDZcUWIWedcfiBCgo4B5-202" edge="1">
          <mxGeometry width="100" relative="1" as="geometry">
            <mxPoint x="570" y="270" as="sourcePoint" />
            <mxPoint x="700" y="280" as="targetPoint" />
          </mxGeometry>
        </mxCell>
        <mxCell id="QDZcUWIWedcfiBCgo4B5-202" value="docker network" style="shape=or;whiteSpace=wrap;html=1;direction=south;" parent="WIyWlLk6GJQsqaUBKTNV-1" vertex="1">
          <mxGeometry x="810" y="300" width="80" height="30" as="geometry" />
        </mxCell>
        <mxCell id="QDZcUWIWedcfiBCgo4B5-205" value="" style="shape=link;html=1;rounded=0;exitX=1;exitY=0.5;exitDx=0;exitDy=0;" parent="WIyWlLk6GJQsqaUBKTNV-1" source="QDZcUWIWedcfiBCgo4B5-28" target="QDZcUWIWedcfiBCgo4B5-36" edge="1">
          <mxGeometry width="100" relative="1" as="geometry">
            <mxPoint x="275" y="270" as="sourcePoint" />
            <mxPoint x="450" y="270" as="targetPoint" />
          </mxGeometry>
        </mxCell>
        <mxCell id="QDZcUWIWedcfiBCgo4B5-36" value="docker network" style="shape=or;whiteSpace=wrap;html=1;direction=south;" parent="WIyWlLk6GJQsqaUBKTNV-1" vertex="1">
          <mxGeometry x="330" y="255" width="80" height="30" as="geometry" />
        </mxCell>
        <mxCell id="QDZcUWIWedcfiBCgo4B5-207" value="no password must be present here" style="text;html=1;align=center;verticalAlign=middle;whiteSpace=wrap;rounded=0;" parent="WIyWlLk6GJQsqaUBKTNV-1" vertex="1">
          <mxGeometry x="420" y="-793.5" width="200" height="30" as="geometry" />
        </mxCell>
        <mxCell id="QDZcUWIWedcfiBCgo4B5-216" value="srcs/.env" style="shape=hexagon;perimeter=hexagonPerimeter2;whiteSpace=wrap;html=1;fixedSize=1;align=center;labelPosition=center;verticalLabelPosition=top;verticalAlign=bottom;labelBackgroundColor=#CCFF99;labelBorderColor=#CCFF99;" parent="WIyWlLk6GJQsqaUBKTNV-1" vertex="1">
          <mxGeometry x="-55" y="-750" width="330" height="180" as="geometry" />
        </mxCell>
        <mxCell id="QDZcUWIWedcfiBCgo4B5-220" value="1. yaml file will find .env as long as both are in same directory" style="text;html=1;align=center;verticalAlign=middle;whiteSpace=wrap;rounded=0;" parent="WIyWlLk6GJQsqaUBKTNV-1" vertex="1">
          <mxGeometry x="-13" y="-700" width="245" height="30" as="geometry" />
        </mxCell>
        <mxCell id="QDZcUWIWedcfiBCgo4B5-210" value="srcs /" style="shape=flexArrow;endArrow=classic;html=1;rounded=0;width=40;endSize=11;fillColor=#cdeb8b;strokeColor=#36393d;" parent="WIyWlLk6GJQsqaUBKTNV-1" edge="1">
          <mxGeometry x="-0.0608" y="4" width="50" height="50" relative="1" as="geometry">
            <mxPoint x="155" y="-980" as="sourcePoint" />
            <mxPoint x="220" y="-890" as="targetPoint" />
            <mxPoint as="offset" />
          </mxGeometry>
        </mxCell>
        <mxCell id="QDZcUWIWedcfiBCgo4B5-222" value="2. this .env file is just for yaml" style="text;html=1;align=center;verticalAlign=middle;whiteSpace=wrap;rounded=0;" parent="WIyWlLk6GJQsqaUBKTNV-1" vertex="1">
          <mxGeometry x="-258" y="-635" width="240" height="30" as="geometry" />
        </mxCell>
        <mxCell id="QDZcUWIWedcfiBCgo4B5-223" value="2. used by yaml file , keeps data more secure and&amp;nbsp; allows for easier management of data (all in same place)&amp;nbsp;" style="text;html=1;align=center;verticalAlign=middle;whiteSpace=wrap;rounded=0;" parent="WIyWlLk6GJQsqaUBKTNV-1" vertex="1">
          <mxGeometry x="-33" y="-665" width="300" height="30" as="geometry" />
        </mxCell>
        <mxCell id="QDZcUWIWedcfiBCgo4B5-224" value="this file is responsible for restart policies" style="text;html=1;align=center;verticalAlign=middle;whiteSpace=wrap;rounded=0;" parent="WIyWlLk6GJQsqaUBKTNV-1" vertex="1">
          <mxGeometry x="450" y="-754" width="170" height="30" as="geometry" />
        </mxCell>
        <UserObject label="Link" link="https://github.com/sparklebutt/Inception/blob/main/flowchart/example_env" id="QDZcUWIWedcfiBCgo4B5-225">
          <mxCell style="text;html=1;strokeColor=none;fillColor=none;whiteSpace=wrap;align=center;verticalAlign=middle;fontColor=#0000EE;fontStyle=4;" parent="WIyWlLk6GJQsqaUBKTNV-1" vertex="1">
            <mxGeometry x="80" y="-620" width="60" height="40" as="geometry" />
          </mxCell>
        </UserObject>
        <UserObject label="Link" link="https://github.com/sparklebutt/Inception/blob/main/flowchart/example_yaml" id="QDZcUWIWedcfiBCgo4B5-226">
          <mxCell style="text;html=1;strokeColor=none;fillColor=none;whiteSpace=wrap;align=center;verticalAlign=middle;fontColor=#0000EE;fontStyle=4;" parent="WIyWlLk6GJQsqaUBKTNV-1" vertex="1">
            <mxGeometry x="500" y="-724" width="60" height="40" as="geometry" />
          </mxCell>
        </UserObject>
        <mxCell id="VuhiG2OMYxqmFF7oU0-H-3" value="requirements /" style="shape=flexArrow;endArrow=classic;html=1;rounded=0;endWidth=28;endSize=8.16;width=18;fillColor=#ffe6cc;strokeColor=#d79b00;" parent="WIyWlLk6GJQsqaUBKTNV-1" edge="1">
          <mxGeometry x="-0.1077" y="2" width="50" height="50" relative="1" as="geometry">
            <mxPoint x="490" y="-480" as="sourcePoint" />
            <mxPoint x="520" y="-400" as="targetPoint" />
            <Array as="points">
              <mxPoint x="500" y="-440" />
            </Array>
            <mxPoint as="offset" />
          </mxGeometry>
        </mxCell>
        <mxCell id="VuhiG2OMYxqmFF7oU0-H-5" value="nginx.conf.template" style="ellipse;whiteSpace=wrap;html=1;" parent="WIyWlLk6GJQsqaUBKTNV-1" vertex="1">
          <mxGeometry x="780" y="-110" width="120" height="80" as="geometry" />
        </mxCell>
        <mxCell id="VuhiG2OMYxqmFF7oU0-H-26" value="alpine is a better choice because its containers are smaller, this allows for faster builds and transfer times.&lt;div&gt;its more lightweight and simple.&lt;/div&gt;" style="shape=loopLimit;whiteSpace=wrap;html=1;" parent="WIyWlLk6GJQsqaUBKTNV-1" vertex="1">
          <mxGeometry x="-177.5" y="-1211" width="100" height="190" as="geometry" />
        </mxCell>
        <mxCell id="VuhiG2OMYxqmFF7oU0-H-27" value="nginx.crt" style="ellipse;whiteSpace=wrap;html=1;" parent="WIyWlLk6GJQsqaUBKTNV-1" vertex="1">
          <mxGeometry x="1121" y="-130" width="120" height="80" as="geometry" />
        </mxCell>
        <mxCell id="VuhiG2OMYxqmFF7oU0-H-28" value="nginx.key" style="ellipse;whiteSpace=wrap;html=1;" parent="WIyWlLk6GJQsqaUBKTNV-1" vertex="1">
          <mxGeometry x="1130" y="-40" width="120" height="80" as="geometry" />
        </mxCell>
        <mxCell id="VuhiG2OMYxqmFF7oU0-H-29" value="entrypoint.sh" style="ellipse;whiteSpace=wrap;html=1;" parent="WIyWlLk6GJQsqaUBKTNV-1" vertex="1">
          <mxGeometry x="1121" y="-220" width="120" height="80" as="geometry" />
        </mxCell>
        <mxCell id="VuhiG2OMYxqmFF7oU0-H-30" value="errors/&lt;div&gt;/*custome error pages (optional)*/&lt;br&gt;&lt;div&gt;404.html&lt;/div&gt;&lt;div&gt;500.html&lt;/div&gt;&lt;/div&gt;" style="ellipse;whiteSpace=wrap;html=1;" parent="WIyWlLk6GJQsqaUBKTNV-1" vertex="1">
          <mxGeometry x="1290" y="-190" width="120" height="80" as="geometry" />
        </mxCell>
        <mxCell id="VuhiG2OMYxqmFF7oU0-H-31" value="html/&lt;div&gt;index.html&lt;/div&gt;&lt;div&gt;styles.css&lt;/div&gt;&lt;div&gt;script.js&lt;/div&gt;" style="ellipse;whiteSpace=wrap;html=1;" parent="WIyWlLk6GJQsqaUBKTNV-1" vertex="1">
          <mxGeometry x="1290" y="-135" width="120" height="80" as="geometry" />
        </mxCell>
        <mxCell id="VuhiG2OMYxqmFF7oU0-H-36" value="php.ini" style="ellipse;whiteSpace=wrap;html=1;" parent="WIyWlLk6GJQsqaUBKTNV-1" vertex="1">
          <mxGeometry x="195" y="-235" width="120" height="80" as="geometry" />
        </mxCell>
        <mxCell id="VuhiG2OMYxqmFF7oU0-H-37" value="supervisor.conf" style="ellipse;whiteSpace=wrap;html=1;" parent="WIyWlLk6GJQsqaUBKTNV-1" vertex="1">
          <mxGeometry x="180" y="-170" width="120" height="80" as="geometry" />
        </mxCell>
        <mxCell id="VuhiG2OMYxqmFF7oU0-H-38" value="mariadb.cnf.template" style="ellipse;whiteSpace=wrap;html=1;" parent="WIyWlLk6GJQsqaUBKTNV-1" vertex="1">
          <mxGeometry x="-342.5" y="-230" width="120" height="80" as="geometry" />
        </mxCell>
        <mxCell id="VuhiG2OMYxqmFF7oU0-H-39" value="open browser , navigate -&amp;gt; https://&amp;lt;my_vm_ip&amp;gt;" style="shape=step;perimeter=stepPerimeter;whiteSpace=wrap;html=1;fixedSize=1;" parent="WIyWlLk6GJQsqaUBKTNV-1" vertex="1">
          <mxGeometry x="940" y="810" width="380" height="80" as="geometry" />
        </mxCell>
        <mxCell id="VuhiG2OMYxqmFF7oU0-H-40" value="running docker-compose commands may require root to run, eg, nginx&lt;div&gt;ports bellow 1024, creating ssh keys and crts aswell as installing some depencies.&amp;nbsp;&lt;/div&gt;" style="shape=step;perimeter=stepPerimeter;whiteSpace=wrap;html=1;fixedSize=1;" parent="WIyWlLk6GJQsqaUBKTNV-1" vertex="1">
          <mxGeometry x="250" y="680" width="410" height="80" as="geometry" />
        </mxCell>
        <mxCell id="VuhiG2OMYxqmFF7oU0-H-41" value="setting up vm (virtual box)" style="swimlane;fontStyle=0;childLayout=stackLayout;horizontal=1;startSize=30;horizontalStack=0;resizeParent=1;resizeParentMax=0;resizeLast=0;collapsible=1;marginBottom=0;whiteSpace=wrap;html=1;fillColor=#e1d5e7;strokeColor=#9673a6;" parent="WIyWlLk6GJQsqaUBKTNV-1" vertex="1" collapsed="1">
          <mxGeometry x="275" y="-2210" width="180" height="30" as="geometry">
            <mxRectangle x="275" y="-2210" width="560" height="280" as="alternateBounds" />
          </mxGeometry>
        </mxCell>
        <mxCell id="VuhiG2OMYxqmFF7oU0-H-42" value="VB boasts good performance , is open source and is a commonly used tool" style="text;strokeColor=none;fillColor=none;align=left;verticalAlign=middle;spacingLeft=4;spacingRight=4;overflow=hidden;points=[[0,0.5],[1,0.5]];portConstraint=eastwest;rotatable=0;whiteSpace=wrap;html=1;" parent="VuhiG2OMYxqmFF7oU0-H-41" vertex="1">
          <mxGeometry y="30" width="560" height="30" as="geometry" />
        </mxCell>
        <mxCell id="VuhiG2OMYxqmFF7oU0-H-44" value="download .iso&amp;nbsp;&lt;span style=&quot;background-color: transparent;&quot;&gt;penultimate stable&amp;nbsp;&lt;/span&gt;&lt;span style=&quot;background-color: transparent; color: light-dark(rgb(0, 0, 0), rgb(255, 255, 255));&quot;&gt;version of Alpine (not latest but previouse stable version 3.20)&lt;/span&gt;" style="text;strokeColor=none;fillColor=none;align=left;verticalAlign=middle;spacingLeft=4;spacingRight=4;overflow=hidden;points=[[0,0.5],[1,0.5]];portConstraint=eastwest;rotatable=0;whiteSpace=wrap;html=1;" parent="VuhiG2OMYxqmFF7oU0-H-41" vertex="1">
          <mxGeometry y="60" width="560" height="30" as="geometry" />
        </mxCell>
        <mxCell id="VuhiG2OMYxqmFF7oU0-H-45" value="attatch the .iso to input windows ISO box. This will allow the vm to run using alpine" style="text;strokeColor=none;fillColor=none;align=left;verticalAlign=top;spacingLeft=4;spacingRight=4;overflow=hidden;rotatable=0;points=[[0,0.5],[1,0.5]];portConstraint=eastwest;whiteSpace=wrap;html=1;" parent="VuhiG2OMYxqmFF7oU0-H-41" vertex="1">
          <mxGeometry y="90" width="560" height="26" as="geometry" />
        </mxCell>
        <mxCell id="VuhiG2OMYxqmFF7oU0-H-43" value="Create new , type linux, version other 64x (because i will be using alpine)" style="text;strokeColor=none;fillColor=none;align=left;verticalAlign=middle;spacingLeft=4;spacingRight=4;overflow=hidden;points=[[0,0.5],[1,0.5]];portConstraint=eastwest;rotatable=0;whiteSpace=wrap;html=1;" parent="VuhiG2OMYxqmFF7oU0-H-41" vertex="1">
          <mxGeometry y="116" width="560" height="30" as="geometry" />
        </mxCell>
        <mxCell id="VuhiG2OMYxqmFF7oU0-H-47" value="free -m to see available ram, df -h to see available disk space" style="text;strokeColor=none;fillColor=none;align=left;verticalAlign=top;spacingLeft=4;spacingRight=4;overflow=hidden;rotatable=0;points=[[0,0.5],[1,0.5]];portConstraint=eastwest;whiteSpace=wrap;html=1;" parent="VuhiG2OMYxqmFF7oU0-H-41" vertex="1">
          <mxGeometry y="146" width="560" height="26" as="geometry" />
        </mxCell>
        <mxCell id="VuhiG2OMYxqmFF7oU0-H-46" value="allocating 3gb (3072mb) ram, 2gb is suggested but i can afford more, 2 cpu min for multitasking" style="text;strokeColor=none;fillColor=none;align=left;verticalAlign=top;spacingLeft=4;spacingRight=4;overflow=hidden;rotatable=0;points=[[0,0.5],[1,0.5]];portConstraint=eastwest;whiteSpace=wrap;html=1;" parent="VuhiG2OMYxqmFF7oU0-H-41" vertex="1">
          <mxGeometry y="172" width="560" height="26" as="geometry" />
        </mxCell>
        <mxCell id="VuhiG2OMYxqmFF7oU0-H-48" value="recommended minimum based on what will go on virtual disk 20gb, i have enough to give 30gb" style="text;strokeColor=none;fillColor=none;align=left;verticalAlign=top;spacingLeft=4;spacingRight=4;overflow=hidden;rotatable=0;points=[[0,0.5],[1,0.5]];portConstraint=eastwest;whiteSpace=wrap;html=1;" parent="VuhiG2OMYxqmFF7oU0-H-41" vertex="1">
          <mxGeometry y="198" width="560" height="26" as="geometry" />
        </mxCell>
        <mxCell id="VuhiG2OMYxqmFF7oU0-H-49" value="do not tick pre-allocate Full size, this way we have a dynamically allocated virtual hard disk" style="text;strokeColor=none;fillColor=none;align=left;verticalAlign=top;spacingLeft=4;spacingRight=4;overflow=hidden;rotatable=0;points=[[0,0.5],[1,0.5]];portConstraint=eastwest;whiteSpace=wrap;html=1;" parent="VuhiG2OMYxqmFF7oU0-H-41" vertex="1">
          <mxGeometry y="224" width="560" height="26" as="geometry" />
        </mxCell>
        <mxCell id="ZHqyOTC_AMdvRTDKiQdO-0" value="we do want a virtual hard disk&amp;nbsp; (allows for persitence across restarts)" style="text;strokeColor=none;fillColor=none;align=left;verticalAlign=middle;spacingLeft=4;spacingRight=4;overflow=hidden;points=[[0,0.5],[1,0.5]];portConstraint=eastwest;rotatable=0;whiteSpace=wrap;html=1;" parent="VuhiG2OMYxqmFF7oU0-H-41" vertex="1">
          <mxGeometry y="250" width="560" height="30" as="geometry" />
        </mxCell>
        <mxCell id="VuhiG2OMYxqmFF7oU0-H-11" value="sudo service docker start" style="text;strokeColor=none;fillColor=none;align=left;verticalAlign=top;spacingLeft=4;spacingRight=4;overflow=hidden;rotatable=0;points=[[0,0.5],[1,0.5]];portConstraint=eastwest;whiteSpace=wrap;html=1;" parent="WIyWlLk6GJQsqaUBKTNV-1" vertex="1">
          <mxGeometry x="1295" y="-906" width="750" height="26" as="geometry" />
        </mxCell>
        <mxCell id="VuhiG2OMYxqmFF7oU0-H-85" value="BONUSES /" style="rounded=1;whiteSpace=wrap;html=1;" parent="WIyWlLk6GJQsqaUBKTNV-1" vertex="1">
          <mxGeometry x="900" y="-360" width="120" height="60" as="geometry" />
        </mxCell>
        <mxCell id="VuhiG2OMYxqmFF7oU0-H-86" value="tools /" style="rounded=1;whiteSpace=wrap;html=1;" parent="WIyWlLk6GJQsqaUBKTNV-1" vertex="1">
          <mxGeometry x="1050" y="-360" width="120" height="60" as="geometry" />
        </mxCell>
        <mxCell id="VuhiG2OMYxqmFF7oU0-H-87" value="" style="shape=flexArrow;endArrow=classic;html=1;rounded=0;exitX=0.5;exitY=1;exitDx=0;exitDy=0;fillColor=#66B2FF;strokeColor=#007FFF;" parent="WIyWlLk6GJQsqaUBKTNV-1" source="WIyWlLk6GJQsqaUBKTNV-11" edge="1">
          <mxGeometry width="50" height="50" relative="1" as="geometry">
            <mxPoint x="210" y="-260" as="sourcePoint" />
            <mxPoint x="-160" y="-210" as="targetPoint" />
          </mxGeometry>
        </mxCell>
        <mxCell id="VuhiG2OMYxqmFF7oU0-H-88" value="Wordpress + php-fpm /" style="rounded=1;whiteSpace=wrap;html=1;" parent="WIyWlLk6GJQsqaUBKTNV-1" vertex="1">
          <mxGeometry x="460" y="-320" width="150" height="60" as="geometry" />
        </mxCell>
        <mxCell id="VuhiG2OMYxqmFF7oU0-H-89" value="" style="endArrow=classic;html=1;rounded=0;entryX=0.5;entryY=0;entryDx=0;entryDy=0;" parent="WIyWlLk6GJQsqaUBKTNV-1" source="VuhiG2OMYxqmFF7oU0-H-88" target="QDZcUWIWedcfiBCgo4B5-195" edge="1">
          <mxGeometry width="50" height="50" relative="1" as="geometry">
            <mxPoint x="670" y="-210" as="sourcePoint" />
            <mxPoint x="720" y="-260" as="targetPoint" />
          </mxGeometry>
        </mxCell>
        <mxCell id="VuhiG2OMYxqmFF7oU0-H-90" value="" style="shape=flexArrow;endArrow=classic;html=1;rounded=0;exitX=0.45;exitY=0.95;exitDx=0;exitDy=0;exitPerimeter=0;fillColor=#FFFF33;" parent="WIyWlLk6GJQsqaUBKTNV-1" source="VuhiG2OMYxqmFF7oU0-H-88" target="Z3fMapQdSAwZX1owhjYI-14" edge="1">
          <mxGeometry width="50" height="50" relative="1" as="geometry">
            <mxPoint x="430" y="-180" as="sourcePoint" />
            <mxPoint x="480" y="-180" as="targetPoint" />
          </mxGeometry>
        </mxCell>
        <mxCell id="VuhiG2OMYxqmFF7oU0-H-91" value="" style="shape=flexArrow;endArrow=classic;html=1;rounded=0;exitX=0.625;exitY=1.025;exitDx=0;exitDy=0;exitPerimeter=0;fillColor=light-dark(#63ff9c, #ededed);entryX=0.224;entryY=0.034;entryDx=0;entryDy=0;entryPerimeter=0;" parent="WIyWlLk6GJQsqaUBKTNV-1" source="WIyWlLk6GJQsqaUBKTNV-3" target="Z3fMapQdSAwZX1owhjYI-3" edge="1">
          <mxGeometry width="50" height="50" relative="1" as="geometry">
            <mxPoint x="770" y="-190" as="sourcePoint" />
            <mxPoint x="810" y="-200" as="targetPoint" />
          </mxGeometry>
        </mxCell>
        <mxCell id="Z3fMapQdSAwZX1owhjYI-0" value="tools /" style="rounded=1;whiteSpace=wrap;html=1;" parent="WIyWlLk6GJQsqaUBKTNV-1" vertex="1">
          <mxGeometry x="910" y="-220" width="120" height="60" as="geometry" />
        </mxCell>
        <mxCell id="Z3fMapQdSAwZX1owhjYI-1" value="dockerignore" style="ellipse;whiteSpace=wrap;html=1;" parent="WIyWlLk6GJQsqaUBKTNV-1" vertex="1">
          <mxGeometry x="780" y="-50" width="120" height="80" as="geometry" />
        </mxCell>
        <mxCell id="Z3fMapQdSAwZX1owhjYI-4" value="" style="shape=flexArrow;endArrow=classic;html=1;rounded=0;fillColor=light-dark(#97D077,#EDEDED);exitX=0.942;exitY=0.933;exitDx=0;exitDy=0;exitPerimeter=0;entryX=0.007;entryY=0.343;entryDx=0;entryDy=0;entryPerimeter=0;width=6;endSize=6.22;" parent="WIyWlLk6GJQsqaUBKTNV-1" source="Z3fMapQdSAwZX1owhjYI-0" target="Z3fMapQdSAwZX1owhjYI-5" edge="1">
          <mxGeometry width="50" height="50" relative="1" as="geometry">
            <mxPoint x="1030" y="-170" as="sourcePoint" />
            <mxPoint x="1050" y="-10" as="targetPoint" />
          </mxGeometry>
        </mxCell>
        <mxCell id="Z3fMapQdSAwZX1owhjYI-6" value="nginx-Dockerfile" style="ellipse;whiteSpace=wrap;html=1;" parent="WIyWlLk6GJQsqaUBKTNV-1" vertex="1">
          <mxGeometry x="780" y="-180" width="120" height="80" as="geometry" />
        </mxCell>
        <mxCell id="Z3fMapQdSAwZX1owhjYI-8" value="" style="endArrow=classic;html=1;rounded=0;exitX=1;exitY=0.5;exitDx=0;exitDy=0;entryX=0.342;entryY=0.963;entryDx=0;entryDy=0;entryPerimeter=0;" parent="WIyWlLk6GJQsqaUBKTNV-1" source="Z3fMapQdSAwZX1owhjYI-6" target="VuhiG2OMYxqmFF7oU0-H-27" edge="1">
          <mxGeometry width="50" height="50" relative="1" as="geometry">
            <mxPoint x="930" y="-110" as="sourcePoint" />
            <mxPoint x="980" y="-160" as="targetPoint" />
          </mxGeometry>
        </mxCell>
        <mxCell id="Z3fMapQdSAwZX1owhjYI-9" value="" style="endArrow=classic;html=1;rounded=0;exitX=1;exitY=0.5;exitDx=0;exitDy=0;" parent="WIyWlLk6GJQsqaUBKTNV-1" source="Z3fMapQdSAwZX1owhjYI-6" target="VuhiG2OMYxqmFF7oU0-H-28" edge="1">
          <mxGeometry width="50" height="50" relative="1" as="geometry">
            <mxPoint x="1000" y="-80" as="sourcePoint" />
            <mxPoint x="1050" y="-130" as="targetPoint" />
          </mxGeometry>
        </mxCell>
        <mxCell id="Z3fMapQdSAwZX1owhjYI-10" value="wordpress-Dockerfile" style="ellipse;whiteSpace=wrap;html=1;" parent="WIyWlLk6GJQsqaUBKTNV-1" vertex="1">
          <mxGeometry x="420" y="-135" width="120" height="80" as="geometry" />
        </mxCell>
        <mxCell id="Z3fMapQdSAwZX1owhjYI-11" value="entrypoint.sh" style="ellipse;whiteSpace=wrap;html=1;" parent="WIyWlLk6GJQsqaUBKTNV-1" vertex="1">
          <mxGeometry x="620" y="-10" width="120" height="80" as="geometry" />
        </mxCell>
        <mxCell id="Z3fMapQdSAwZX1owhjYI-12" value="tools /" style="rounded=1;whiteSpace=wrap;html=1;" parent="WIyWlLk6GJQsqaUBKTNV-1" vertex="1">
          <mxGeometry x="480" y="-220" width="120" height="60" as="geometry" />
        </mxCell>
        <mxCell id="Z3fMapQdSAwZX1owhjYI-15" value="" style="shape=flexArrow;endArrow=classic;html=1;rounded=0;fillColor=#CCCC00;" parent="WIyWlLk6GJQsqaUBKTNV-1" source="Z3fMapQdSAwZX1owhjYI-12" edge="1">
          <mxGeometry width="50" height="50" relative="1" as="geometry">
            <mxPoint x="670" y="-160" as="sourcePoint" />
            <mxPoint x="660" y="-120" as="targetPoint" />
          </mxGeometry>
        </mxCell>
        <mxCell id="Z3fMapQdSAwZX1owhjYI-18" value="Actor" style="shape=umlActor;verticalLabelPosition=bottom;verticalAlign=top;html=1;outlineConnect=0;" parent="WIyWlLk6GJQsqaUBKTNV-1" vertex="1">
          <mxGeometry x="670" y="140" width="30" height="60" as="geometry" />
        </mxCell>
        <mxCell id="Z3fMapQdSAwZX1owhjYI-20" value="" style="endArrow=none;html=1;rounded=0;exitX=0.333;exitY=0.75;exitDx=0;exitDy=0;exitPerimeter=0;" parent="WIyWlLk6GJQsqaUBKTNV-1" source="VuhiG2OMYxqmFF7oU0-H-37" edge="1">
          <mxGeometry width="50" height="50" relative="1" as="geometry">
            <mxPoint x="330" y="-160" as="sourcePoint" />
            <mxPoint x="290" y="-240" as="targetPoint" />
          </mxGeometry>
        </mxCell>
        <mxCell id="Z3fMapQdSAwZX1owhjYI-21" value="" style="endArrow=none;html=1;rounded=0;" parent="WIyWlLk6GJQsqaUBKTNV-1" edge="1">
          <mxGeometry width="50" height="50" relative="1" as="geometry">
            <mxPoint x="225" y="-200" as="sourcePoint" />
            <mxPoint x="275" y="-130" as="targetPoint" />
          </mxGeometry>
        </mxCell>
        <mxCell id="Z3fMapQdSAwZX1owhjYI-22" value="" style="endArrow=none;html=1;rounded=0;" parent="WIyWlLk6GJQsqaUBKTNV-1" edge="1">
          <mxGeometry width="50" height="50" relative="1" as="geometry">
            <mxPoint x="1310" y="-80" as="sourcePoint" />
            <mxPoint x="1390" y="-160" as="targetPoint" />
          </mxGeometry>
        </mxCell>
        <mxCell id="Z3fMapQdSAwZX1owhjYI-23" value="" style="endArrow=none;html=1;rounded=0;" parent="WIyWlLk6GJQsqaUBKTNV-1" edge="1">
          <mxGeometry width="50" height="50" relative="1" as="geometry">
            <mxPoint x="1315" y="-180" as="sourcePoint" />
            <mxPoint x="1385" y="-90" as="targetPoint" />
          </mxGeometry>
        </mxCell>
        <mxCell id="Z3fMapQdSAwZX1owhjYI-24" value="tools /" style="rounded=1;whiteSpace=wrap;html=1;" parent="WIyWlLk6GJQsqaUBKTNV-1" vertex="1">
          <mxGeometry x="-120" y="-225" width="120" height="60" as="geometry" />
        </mxCell>
        <mxCell id="Z3fMapQdSAwZX1owhjYI-25" value="entrypoint.sh" style="ellipse;whiteSpace=wrap;html=1;" parent="WIyWlLk6GJQsqaUBKTNV-1" vertex="1">
          <mxGeometry x="35" y="-55" width="120" height="80" as="geometry" />
        </mxCell>
        <mxCell id="Z3fMapQdSAwZX1owhjYI-26" value="mariadb-Dockerfile" style="ellipse;whiteSpace=wrap;html=1;" parent="WIyWlLk6GJQsqaUBKTNV-1" vertex="1">
          <mxGeometry x="-342.5" y="-135" width="120" height="80" as="geometry" />
        </mxCell>
        <mxCell id="Z3fMapQdSAwZX1owhjYI-27" value="php-fpm.conf.template" style="ellipse;whiteSpace=wrap;html=1;" parent="WIyWlLk6GJQsqaUBKTNV-1" vertex="1">
          <mxGeometry x="410" y="-60" width="120" height="80" as="geometry" />
        </mxCell>
        <mxCell id="Z3fMapQdSAwZX1owhjYI-30" value="" style="shape=flexArrow;endArrow=classic;html=1;rounded=0;strokeColor=#004C99;fillColor=#004C99;exitX=1;exitY=1;exitDx=0;exitDy=0;entryX=0.28;entryY=0.398;entryDx=0;entryDy=0;entryPerimeter=0;" parent="WIyWlLk6GJQsqaUBKTNV-1" source="Z3fMapQdSAwZX1owhjYI-24" target="Z3fMapQdSAwZX1owhjYI-29" edge="1">
          <mxGeometry width="50" height="50" relative="1" as="geometry">
            <mxPoint x="140" y="-160" as="sourcePoint" />
            <mxPoint x="180" y="-120" as="targetPoint" />
          </mxGeometry>
        </mxCell>
        <mxCell id="Z3fMapQdSAwZX1owhjYI-31" value="" style="html=1;dashed=0;whiteSpace=wrap;shape=partialRectangle;right=0;left=0;rotation=90;" parent="WIyWlLk6GJQsqaUBKTNV-1" vertex="1">
          <mxGeometry x="610" y="385" width="110" height="30" as="geometry" />
        </mxCell>
        <mxCell id="Z3fMapQdSAwZX1owhjYI-32" value="" style="html=1;dashed=0;whiteSpace=wrap;shape=partialRectangle;right=0;left=0;rotation=-25;" parent="WIyWlLk6GJQsqaUBKTNV-1" vertex="1">
          <mxGeometry x="671.35" y="371.41" width="322.72" height="25" as="geometry" />
        </mxCell>
        <mxCell id="Z3fMapQdSAwZX1owhjYI-33" value="" style="html=1;dashed=0;whiteSpace=wrap;shape=partialRectangle;right=0;left=0;rotation=90;" parent="WIyWlLk6GJQsqaUBKTNV-1" vertex="1">
          <mxGeometry x="-190" y="260" width="80" height="30" as="geometry" />
        </mxCell>
        <mxCell id="Z3fMapQdSAwZX1owhjYI-50" value="dockerignore" style="ellipse;whiteSpace=wrap;html=1;" parent="WIyWlLk6GJQsqaUBKTNV-1" vertex="1">
          <mxGeometry x="310" y="-17.5" width="120" height="80" as="geometry" />
        </mxCell>
        <mxCell id="Z3fMapQdSAwZX1owhjYI-51" value="dockerignore" style="ellipse;whiteSpace=wrap;html=1;" parent="WIyWlLk6GJQsqaUBKTNV-1" vertex="1">
          <mxGeometry x="-330" y="-55" width="120" height="80" as="geometry" />
        </mxCell>
        <mxCell id="Z3fMapQdSAwZX1owhjYI-56" value="so that local and vm can connect , im using bridged , we will need to check masks, and vms ip and hostname are listes in etc/hosts (local machine)" style="text;strokeColor=none;fillColor=none;align=left;verticalAlign=top;spacingLeft=4;spacingRight=4;overflow=hidden;rotatable=0;points=[[0,0.5],[1,0.5]];portConstraint=eastwest;whiteSpace=wrap;html=1;" parent="WIyWlLk6GJQsqaUBKTNV-1" vertex="1">
          <mxGeometry x="1020" y="-769" width="710" height="60" as="geometry" />
        </mxCell>
        <mxCell id="Z3fMapQdSAwZX1owhjYI-52" value="# Replace /path/to/your/project with the path to your project directory on your local machine&lt;br&gt;# Replace user@vm-ip:/path/to/destination with the VM&#39;s username, IP address, and the destination path on the VM&lt;br&gt;scp -r /path/to/your/project user@vm-ip:/path/to/destination, (user will be root now for testing, but creating a user with sudo privlidge is adviced)" style="text;strokeColor=none;fillColor=none;align=left;verticalAlign=top;spacingLeft=4;spacingRight=4;overflow=hidden;rotatable=0;points=[[0,0.5],[1,0.5]];portConstraint=eastwest;whiteSpace=wrap;html=1;" parent="WIyWlLk6GJQsqaUBKTNV-1" vertex="1">
          <mxGeometry x="925" y="-836" width="750" height="86" as="geometry" />
        </mxCell>
        <mxCell id="Z3fMapQdSAwZX1owhjYI-58" value="scp user@local_ip:/path/to/local/file /path/to/remote/destination" style="text;strokeColor=none;fillColor=none;align=left;verticalAlign=middle;spacingLeft=4;spacingRight=4;overflow=hidden;points=[[0,0.5],[1,0.5]];portConstraint=eastwest;rotatable=0;whiteSpace=wrap;html=1;" parent="WIyWlLk6GJQsqaUBKTNV-1" vertex="1">
          <mxGeometry x="970" y="-870" width="750" height="30" as="geometry" />
        </mxCell>
        <mxCell id="Z3fMapQdSAwZX1owhjYI-62" value="ip addr show&#xa;configure port forwarding through virtual boxes own settings&#xa;network&gt;advanced&gt;portfowarding&#xa;add new rule , ssh, tcp, blank,222, vm-ip,port 22&#xa;restart openssh, servcie sshd restart, then status" style="swimlane;startSize=0;" parent="WIyWlLk6GJQsqaUBKTNV-1" vertex="1">
          <mxGeometry x="1475" y="-1500" width="200" height="200" as="geometry" />
        </mxCell>
        <mxCell id="Z3fMapQdSAwZX1owhjYI-64" value="docker-compose config to check yaml and .env file together" style="shape=delay;whiteSpace=wrap;html=1;" parent="WIyWlLk6GJQsqaUBKTNV-1" vertex="1">
          <mxGeometry x="900" y="500" width="490" height="40" as="geometry" />
        </mxCell>
        <mxCell id="Z3fMapQdSAwZX1owhjYI-65" value="service docker status to check status&amp;nbsp;" style="shape=delay;whiteSpace=wrap;html=1;" parent="WIyWlLk6GJQsqaUBKTNV-1" vertex="1">
          <mxGeometry x="879" y="565" width="550" height="40" as="geometry" />
        </mxCell>
        <mxCell id="Z3fMapQdSAwZX1owhjYI-66" value="sudo service docker start to start deamon" style="shape=delay;whiteSpace=wrap;html=1;" parent="WIyWlLk6GJQsqaUBKTNV-1" vertex="1">
          <mxGeometry x="885" y="620" width="520" height="40" as="geometry" />
        </mxCell>
        <mxCell id="Z3fMapQdSAwZX1owhjYI-61" value="&lt;div&gt;run in local terminal but not logged into vm&lt;/div&gt;scp -r /home/user/path/to/file root@vm-ip:/inception/" style="text;strokeColor=none;fillColor=none;align=left;verticalAlign=middle;spacingLeft=4;spacingRight=4;overflow=hidden;points=[[0,0.5],[1,0.5]];portConstraint=eastwest;rotatable=0;whiteSpace=wrap;html=1;" parent="WIyWlLk6GJQsqaUBKTNV-1" vertex="1">
          <mxGeometry x="257.5" y="-950" width="750" height="44" as="geometry" />
        </mxCell>
        <mxCell id="Z3fMapQdSAwZX1owhjYI-69" value="docker test thinga&lt;div&gt;1. check network up, docker network ls, create one:&amp;nbsp;&amp;nbsp;docker network create custom-network&lt;/div&gt;&lt;div&gt;2. how to step inside continaier&amp;nbsp;&lt;/div&gt;&lt;div&gt;&lt;div&gt;docker exec -it mariadb_container /bin/sh&lt;/div&gt;&lt;/div&gt;&lt;div&gt;3. syntax can be checked eg, nginx -t&lt;/div&gt;" style="shape=loopLimit;whiteSpace=wrap;html=1;" parent="WIyWlLk6GJQsqaUBKTNV-1" vertex="1">
          <mxGeometry x="-67.5" y="470" width="325" height="385" as="geometry" />
        </mxCell>
        <mxCell id="ZHqyOTC_AMdvRTDKiQdO-12" value="go to vm settings, storage add hardisk then general , advanced and allow file sharing for copy paste option" style="text;strokeColor=none;fillColor=none;align=left;verticalAlign=middle;spacingLeft=4;spacingRight=4;overflow=hidden;points=[[0,0.5],[1,0.5]];portConstraint=eastwest;rotatable=0;whiteSpace=wrap;html=1;" parent="WIyWlLk6GJQsqaUBKTNV-1" vertex="1">
          <mxGeometry x="420" y="-2310" width="400" height="30" as="geometry" />
        </mxCell>
        <mxCell id="ZHqyOTC_AMdvRTDKiQdO-13" value="go to shared folders and apply a folder path (advice to call it the same on alternative machines) , apply a mount folder, this does not need to exits yet in the vm, after setup you can create it and mount&amp;nbsp;" style="text;strokeColor=none;fillColor=none;align=left;verticalAlign=middle;spacingLeft=4;spacingRight=4;overflow=hidden;points=[[0,0.5],[1,0.5]];portConstraint=eastwest;rotatable=0;whiteSpace=wrap;html=1;" parent="WIyWlLk6GJQsqaUBKTNV-1" vertex="1">
          <mxGeometry x="407.5" y="-2270" width="450" height="50" as="geometry" />
        </mxCell>
        <mxCell id="uMcUcsL96oLUDKpdZnBT-1" style="edgeStyle=orthogonalEdgeStyle;rounded=0;orthogonalLoop=1;jettySize=auto;html=1;exitX=0;exitY=1;exitDx=0;exitDy=0;entryX=0.25;entryY=1;entryDx=0;entryDy=0;" parent="WIyWlLk6GJQsqaUBKTNV-1" source="QDZcUWIWedcfiBCgo4B5-56" target="QDZcUWIWedcfiBCgo4B5-56" edge="1">
          <mxGeometry relative="1" as="geometry" />
        </mxCell>
        <mxCell id="uMcUcsL96oLUDKpdZnBT-2" value="vm installs" style="swimlane;fontStyle=0;childLayout=stackLayout;horizontal=1;startSize=30;horizontalStack=0;resizeParent=1;resizeParentMax=0;resizeLast=0;collapsible=1;marginBottom=0;whiteSpace=wrap;html=1;fillColor=#e1d5e7;strokeColor=#9673a6;" parent="WIyWlLk6GJQsqaUBKTNV-1" vertex="1">
          <mxGeometry x="220" y="-1850" width="750" height="852" as="geometry">
            <mxRectangle x="420" y="-1270" width="100" height="30" as="alternateBounds" />
          </mxGeometry>
        </mxCell>
        <mxCell id="uMcUcsL96oLUDKpdZnBT-3" value="1. When ur first initial loginhost is root, we do not need to use sudo" style="text;strokeColor=none;fillColor=none;align=left;verticalAlign=top;spacingLeft=4;spacingRight=4;overflow=hidden;rotatable=0;points=[[0,0.5],[1,0.5]];portConstraint=eastwest;whiteSpace=wrap;html=1;" parent="uMcUcsL96oLUDKpdZnBT-2" vertex="1">
          <mxGeometry y="30" width="750" height="26" as="geometry" />
        </mxCell>
        <mxCell id="3vjjs1ufuwTcPi8iLulX-1" value="cmd: setup-alpine" style="swimlane;fontStyle=0;childLayout=stackLayout;horizontal=1;startSize=30;horizontalStack=0;resizeParent=1;resizeParentMax=0;resizeLast=0;collapsible=1;marginBottom=0;whiteSpace=wrap;html=1;fillColor=#FFFFFF;swimlaneFillColor=#FEF6FF;" parent="uMcUcsL96oLUDKpdZnBT-2" vertex="1" collapsed="1">
          <mxGeometry y="56" width="750" height="30" as="geometry">
            <mxRectangle y="56" width="750" height="600" as="alternateBounds" />
          </mxGeometry>
        </mxCell>
        <mxCell id="ZHqyOTC_AMdvRTDKiQdO-2" value="keyboard layout i chose none" style="text;strokeColor=none;fillColor=none;align=left;verticalAlign=middle;spacingLeft=4;spacingRight=4;overflow=hidden;points=[[0,0.5],[1,0.5]];portConstraint=eastwest;rotatable=0;whiteSpace=wrap;html=1;" parent="3vjjs1ufuwTcPi8iLulX-1" vertex="1">
          <mxGeometry y="30" width="750" height="30" as="geometry" />
        </mxCell>
        <mxCell id="ZHqyOTC_AMdvRTDKiQdO-3" value="hostname: user.42.fr" style="text;strokeColor=none;fillColor=none;align=left;verticalAlign=middle;spacingLeft=4;spacingRight=4;overflow=hidden;points=[[0,0.5],[1,0.5]];portConstraint=eastwest;rotatable=0;whiteSpace=wrap;html=1;" parent="3vjjs1ufuwTcPi8iLulX-1" vertex="1">
          <mxGeometry y="60" width="750" height="30" as="geometry" />
        </mxCell>
        <mxCell id="3vjjs1ufuwTcPi8iLulX-2" value="interface: eth0 (or similar eth if available)" style="text;strokeColor=none;fillColor=none;align=left;verticalAlign=middle;spacingLeft=4;spacingRight=4;overflow=hidden;points=[[0,0.5],[1,0.5]];portConstraint=eastwest;rotatable=0;whiteSpace=wrap;html=1;" parent="3vjjs1ufuwTcPi8iLulX-1" vertex="1">
          <mxGeometry y="90" width="750" height="30" as="geometry" />
        </mxCell>
        <mxCell id="3vjjs1ufuwTcPi8iLulX-4" value="ip addr: dhcp (for automatic network config)" style="text;strokeColor=none;fillColor=none;align=left;verticalAlign=middle;spacingLeft=4;spacingRight=4;overflow=hidden;points=[[0,0.5],[1,0.5]];portConstraint=eastwest;rotatable=0;whiteSpace=wrap;html=1;" parent="3vjjs1ufuwTcPi8iLulX-1" vertex="1">
          <mxGeometry y="120" width="750" height="30" as="geometry" />
        </mxCell>
        <mxCell id="3vjjs1ufuwTcPi8iLulX-3" value="manual network: not required, peeking does no harm if you want" style="text;strokeColor=none;fillColor=none;align=left;verticalAlign=middle;spacingLeft=4;spacingRight=4;overflow=hidden;points=[[0,0.5],[1,0.5]];portConstraint=eastwest;rotatable=0;whiteSpace=wrap;html=1;" parent="3vjjs1ufuwTcPi8iLulX-1" vertex="1">
          <mxGeometry y="150" width="750" height="30" as="geometry" />
        </mxCell>
        <mxCell id="ZHqyOTC_AMdvRTDKiQdO-1" value="Password : advisable&amp;nbsp;" style="text;strokeColor=none;fillColor=none;align=left;verticalAlign=middle;spacingLeft=4;spacingRight=4;overflow=hidden;points=[[0,0.5],[1,0.5]];portConstraint=eastwest;rotatable=0;whiteSpace=wrap;html=1;" parent="3vjjs1ufuwTcPi8iLulX-1" vertex="1">
          <mxGeometry y="180" width="750" height="30" as="geometry" />
        </mxCell>
        <mxCell id="3vjjs1ufuwTcPi8iLulX-27" value="time: choose your local time" style="text;strokeColor=none;fillColor=none;align=left;verticalAlign=middle;spacingLeft=4;spacingRight=4;overflow=hidden;points=[[0,0.5],[1,0.5]];portConstraint=eastwest;rotatable=0;whiteSpace=wrap;html=1;" parent="3vjjs1ufuwTcPi8iLulX-1" vertex="1">
          <mxGeometry y="210" width="750" height="30" as="geometry" />
        </mxCell>
        <mxCell id="ZHqyOTC_AMdvRTDKiQdO-4" value="proxy: not required" style="text;strokeColor=none;fillColor=none;align=left;verticalAlign=middle;spacingLeft=4;spacingRight=4;overflow=hidden;points=[[0,0.5],[1,0.5]];portConstraint=eastwest;rotatable=0;whiteSpace=wrap;html=1;" parent="3vjjs1ufuwTcPi8iLulX-1" vertex="1">
          <mxGeometry y="240" width="750" height="30" as="geometry" />
        </mxCell>
        <mxCell id="ZHqyOTC_AMdvRTDKiQdO-7" value="NTP: chrony (more precise, beneficial with network crashes&amp;nbsp; )" style="text;strokeColor=none;fillColor=none;align=left;verticalAlign=middle;spacingLeft=4;spacingRight=4;overflow=hidden;points=[[0,0.5],[1,0.5]];portConstraint=eastwest;rotatable=0;whiteSpace=wrap;html=1;" parent="3vjjs1ufuwTcPi8iLulX-1" vertex="1">
          <mxGeometry y="270" width="750" height="30" as="geometry" />
        </mxCell>
        <mxCell id="ZHqyOTC_AMdvRTDKiQdO-9" value="apk mirror: type s to see list (to check you have items on list), type more so you can type f&amp;nbsp;" style="text;strokeColor=none;fillColor=none;align=left;verticalAlign=middle;spacingLeft=4;spacingRight=4;overflow=hidden;points=[[0,0.5],[1,0.5]];portConstraint=eastwest;rotatable=0;whiteSpace=wrap;html=1;" parent="3vjjs1ufuwTcPi8iLulX-1" vertex="1">
          <mxGeometry y="300" width="750" height="30" as="geometry" />
        </mxCell>
        <mxCell id="ZHqyOTC_AMdvRTDKiQdO-10" value="set up user y: user name, fullname also username password: advisable" style="text;strokeColor=none;fillColor=none;align=left;verticalAlign=middle;spacingLeft=4;spacingRight=4;overflow=hidden;points=[[0,0.5],[1,0.5]];portConstraint=eastwest;rotatable=0;whiteSpace=wrap;html=1;" parent="3vjjs1ufuwTcPi8iLulX-1" vertex="1">
          <mxGeometry y="330" width="750" height="30" as="geometry" />
        </mxCell>
        <mxCell id="3vjjs1ufuwTcPi8iLulX-0" value="ssh: not now, we will do this after setup" style="text;strokeColor=none;fillColor=none;align=left;verticalAlign=middle;spacingLeft=4;spacingRight=4;overflow=hidden;points=[[0,0.5],[1,0.5]];portConstraint=eastwest;rotatable=0;whiteSpace=wrap;html=1;" parent="3vjjs1ufuwTcPi8iLulX-1" vertex="1">
          <mxGeometry y="360" width="750" height="30" as="geometry" />
        </mxCell>
        <mxCell id="ZHqyOTC_AMdvRTDKiQdO-11" value="choose openssh for vaster options and allow root login for ssh, we will add shh later" style="text;strokeColor=none;fillColor=none;align=left;verticalAlign=middle;spacingLeft=4;spacingRight=4;overflow=hidden;points=[[0,0.5],[1,0.5]];portConstraint=eastwest;rotatable=0;whiteSpace=wrap;html=1;" parent="3vjjs1ufuwTcPi8iLulX-1" vertex="1">
          <mxGeometry y="390" width="750" height="30" as="geometry" />
        </mxCell>
        <mxCell id="ZHqyOTC_AMdvRTDKiQdO-14" value="choose sda as disk then choose sys" style="text;strokeColor=none;fillColor=none;align=left;verticalAlign=middle;spacingLeft=4;spacingRight=4;overflow=hidden;points=[[0,0.5],[1,0.5]];portConstraint=eastwest;rotatable=0;whiteSpace=wrap;html=1;" parent="3vjjs1ufuwTcPi8iLulX-1" vertex="1">
          <mxGeometry y="420" width="750" height="30" as="geometry" />
        </mxCell>
        <mxCell id="ZHqyOTC_AMdvRTDKiQdO-8" value="earse above disk: yes" style="text;strokeColor=none;fillColor=none;align=left;verticalAlign=middle;spacingLeft=4;spacingRight=4;overflow=hidden;points=[[0,0.5],[1,0.5]];portConstraint=eastwest;rotatable=0;whiteSpace=wrap;html=1;" parent="3vjjs1ufuwTcPi8iLulX-1" vertex="1">
          <mxGeometry y="450" width="750" height="30" as="geometry" />
        </mxCell>
        <mxCell id="3vjjs1ufuwTcPi8iLulX-5" value="BEFORE REEBOOT , DO NOT CLOSE EITHER , virtual box settings for this vm, go to storage, click on the .iso file , optical drive , remove it.&amp;nbsp;" style="text;strokeColor=none;fillColor=none;align=left;verticalAlign=middle;spacingLeft=4;spacingRight=4;overflow=hidden;points=[[0,0.5],[1,0.5]];portConstraint=eastwest;rotatable=0;whiteSpace=wrap;html=1;" parent="3vjjs1ufuwTcPi8iLulX-1" vertex="1">
          <mxGeometry y="480" width="750" height="40" as="geometry" />
        </mxCell>
        <mxCell id="3vjjs1ufuwTcPi8iLulX-6" value="touch a test.txt and reboot, once rebooted login should be prompted with username or root and password , if the test.txt is there also , job done!" style="text;strokeColor=none;fillColor=none;align=left;verticalAlign=middle;spacingLeft=4;spacingRight=4;overflow=hidden;points=[[0,0.5],[1,0.5]];portConstraint=eastwest;rotatable=0;whiteSpace=wrap;html=1;" parent="3vjjs1ufuwTcPi8iLulX-1" vertex="1">
          <mxGeometry y="520" width="750" height="40" as="geometry" />
        </mxCell>
        <mxCell id="3vjjs1ufuwTcPi8iLulX-7" value="if opting for bridge network instead of NAT, poweroff set network settings to bridge (difference is that bridge gives the vm its own ip address and port forwarding is not required)" style="text;strokeColor=none;fillColor=none;align=left;verticalAlign=middle;spacingLeft=4;spacingRight=4;overflow=hidden;points=[[0,0.5],[1,0.5]];portConstraint=eastwest;rotatable=0;whiteSpace=wrap;html=1;" parent="3vjjs1ufuwTcPi8iLulX-1" vertex="1">
          <mxGeometry y="560" width="750" height="40" as="geometry" />
        </mxCell>
        <mxCell id="3vjjs1ufuwTcPi8iLulX-9" value="vim /etc/apk/repositories and uncomment community repo" style="text;strokeColor=none;fillColor=none;align=left;verticalAlign=middle;spacingLeft=4;spacingRight=4;overflow=hidden;points=[[0,0.5],[1,0.5]];portConstraint=eastwest;rotatable=0;whiteSpace=wrap;html=1;" parent="uMcUcsL96oLUDKpdZnBT-2" vertex="1">
          <mxGeometry y="86" width="750" height="30" as="geometry" />
        </mxCell>
        <mxCell id="uMcUcsL96oLUDKpdZnBT-5" value="2. sudo apk update (updates the packages list , does not update system)" style="text;strokeColor=none;fillColor=none;align=left;verticalAlign=middle;spacingLeft=4;spacingRight=4;overflow=hidden;points=[[0,0.5],[1,0.5]];portConstraint=eastwest;rotatable=0;whiteSpace=wrap;html=1;" parent="uMcUcsL96oLUDKpdZnBT-2" vertex="1">
          <mxGeometry y="116" width="750" height="30" as="geometry" />
        </mxCell>
        <mxCell id="uMcUcsL96oLUDKpdZnBT-20" value="apk add vim if we want colours and potential syntax error notices" style="text;strokeColor=none;fillColor=none;align=left;verticalAlign=middle;spacingLeft=4;spacingRight=4;overflow=hidden;points=[[0,0.5],[1,0.5]];portConstraint=eastwest;rotatable=0;whiteSpace=wrap;html=1;" parent="uMcUcsL96oLUDKpdZnBT-2" vertex="1">
          <mxGeometry y="146" width="750" height="30" as="geometry" />
        </mxCell>
        <mxCell id="uMcUcsL96oLUDKpdZnBT-13" value="apk add openssh so we can use scp, (secure copy)" style="text;strokeColor=none;fillColor=none;align=left;verticalAlign=middle;spacingLeft=4;spacingRight=4;overflow=hidden;points=[[0,0.5],[1,0.5]];portConstraint=eastwest;rotatable=0;whiteSpace=wrap;html=1;" parent="uMcUcsL96oLUDKpdZnBT-2" vertex="1">
          <mxGeometry y="176" width="750" height="30" as="geometry" />
        </mxCell>
        <mxCell id="uMcUcsL96oLUDKpdZnBT-22" value="ssh set up" style="swimlane;fontStyle=0;childLayout=stackLayout;horizontal=1;startSize=30;horizontalStack=0;resizeParent=1;resizeParentMax=0;resizeLast=0;collapsible=1;marginBottom=0;whiteSpace=wrap;html=1;swimlaneFillColor=#FEF6FF;fillColor=none;" parent="uMcUcsL96oLUDKpdZnBT-2" vertex="1" collapsed="1">
          <mxGeometry y="206" width="750" height="30" as="geometry">
            <mxRectangle y="206" width="750" height="200" as="alternateBounds" />
          </mxGeometry>
        </mxCell>
        <mxCell id="uMcUcsL96oLUDKpdZnBT-23" value="vim /etc/ssh/sshd_config" style="text;strokeColor=none;fillColor=none;align=left;verticalAlign=middle;spacingLeft=4;spacingRight=4;overflow=hidden;points=[[0,0.5],[1,0.5]];portConstraint=eastwest;rotatable=0;whiteSpace=wrap;html=1;" parent="uMcUcsL96oLUDKpdZnBT-22" vertex="1">
          <mxGeometry y="30" width="750" height="30" as="geometry" />
        </mxCell>
        <mxCell id="uMcUcsL96oLUDKpdZnBT-24" value="&lt;span style=&quot;white-space: pre;&quot;&gt;&#x9;&lt;/span&gt;PermitRootLogin yes&lt;div&gt;&lt;span style=&quot;white-space: pre;&quot;&gt;&#x9;&lt;/span&gt;PasswordAuthengtication yes&lt;/div&gt;&lt;div&gt;&lt;span style=&quot;white-space: pre;&quot;&gt;&#x9;&lt;/span&gt;Port 22&lt;br&gt;&lt;/div&gt;" style="text;strokeColor=none;fillColor=none;align=left;verticalAlign=middle;spacingLeft=4;spacingRight=4;overflow=hidden;points=[[0,0.5],[1,0.5]];portConstraint=eastwest;rotatable=0;whiteSpace=wrap;html=1;" parent="uMcUcsL96oLUDKpdZnBT-22" vertex="1">
          <mxGeometry y="60" width="750" height="60" as="geometry" />
        </mxCell>
        <mxCell id="uMcUcsL96oLUDKpdZnBT-25" value="rc_service sshd restart" style="text;strokeColor=none;fillColor=none;align=left;verticalAlign=middle;spacingLeft=4;spacingRight=4;overflow=hidden;points=[[0,0.5],[1,0.5]];portConstraint=eastwest;rotatable=0;whiteSpace=wrap;html=1;" parent="uMcUcsL96oLUDKpdZnBT-22" vertex="1">
          <mxGeometry y="120" width="750" height="30" as="geometry" />
        </mxCell>
        <mxCell id="uMcUcsL96oLUDKpdZnBT-26" value="in physical machines terminal ssh root@vm-ip (inside vm type ip addr)&lt;div&gt;you know have access to copy paste through physical machines terminal.&lt;/div&gt;" style="text;strokeColor=none;fillColor=none;align=left;verticalAlign=middle;spacingLeft=4;spacingRight=4;overflow=hidden;points=[[0,0.5],[1,0.5]];portConstraint=eastwest;rotatable=0;whiteSpace=wrap;html=1;" parent="uMcUcsL96oLUDKpdZnBT-22" vertex="1">
          <mxGeometry y="150" width="750" height="50" as="geometry" />
        </mxCell>
        <mxCell id="3vjjs1ufuwTcPi8iLulX-12" value="sudo privladges" style="swimlane;fontStyle=0;childLayout=stackLayout;horizontal=1;startSize=30;horizontalStack=0;resizeParent=1;resizeParentMax=0;resizeLast=0;collapsible=1;marginBottom=0;whiteSpace=wrap;html=1;swimlaneFillColor=#ECFFE8;fillColor=none;" parent="uMcUcsL96oLUDKpdZnBT-2" vertex="1" collapsed="1">
          <mxGeometry y="236" width="750" height="30" as="geometry">
            <mxRectangle x="990" y="-1840" width="400" height="210" as="alternateBounds" />
          </mxGeometry>
        </mxCell>
        <mxCell id="3vjjs1ufuwTcPi8iLulX-13" value="visudo fins %sudo ALL=(ALL:ALL) ALL and uncomment (should find close to bottom of page)" style="text;strokeColor=none;fillColor=none;align=left;verticalAlign=middle;spacingLeft=4;spacingRight=4;overflow=hidden;points=[[0,0.5],[1,0.5]];portConstraint=eastwest;rotatable=0;whiteSpace=wrap;html=1;" parent="3vjjs1ufuwTcPi8iLulX-12" vertex="1">
          <mxGeometry y="30" width="400" height="30" as="geometry" />
        </mxCell>
        <mxCell id="3vjjs1ufuwTcPi8iLulX-14" value="save and exit (same way as vim)" style="text;strokeColor=none;fillColor=none;align=left;verticalAlign=middle;spacingLeft=4;spacingRight=4;overflow=hidden;points=[[0,0.5],[1,0.5]];portConstraint=eastwest;rotatable=0;whiteSpace=wrap;html=1;" parent="3vjjs1ufuwTcPi8iLulX-12" vertex="1">
          <mxGeometry y="60" width="400" height="30" as="geometry" />
        </mxCell>
        <mxCell id="3vjjs1ufuwTcPi8iLulX-15" value="getent group sudo to check group exists, if no output:" style="text;strokeColor=none;fillColor=none;align=left;verticalAlign=middle;spacingLeft=4;spacingRight=4;overflow=hidden;points=[[0,0.5],[1,0.5]];portConstraint=eastwest;rotatable=0;whiteSpace=wrap;html=1;" parent="3vjjs1ufuwTcPi8iLulX-12" vertex="1">
          <mxGeometry y="90" width="400" height="30" as="geometry" />
        </mxCell>
        <mxCell id="3vjjs1ufuwTcPi8iLulX-17" value="&lt;span style=&quot;white-space: pre;&quot;&gt;&#x9;&lt;/span&gt;&lt;span style=&quot;white-space: pre;&quot;&gt;&#x9;&lt;/span&gt;addgroup sudo" style="text;strokeColor=none;fillColor=none;align=left;verticalAlign=middle;spacingLeft=4;spacingRight=4;overflow=hidden;points=[[0,0.5],[1,0.5]];portConstraint=eastwest;rotatable=0;whiteSpace=wrap;html=1;" parent="3vjjs1ufuwTcPi8iLulX-12" vertex="1">
          <mxGeometry y="120" width="400" height="30" as="geometry" />
        </mxCell>
        <mxCell id="3vjjs1ufuwTcPi8iLulX-18" value="&lt;span style=&quot;white-space: pre;&quot;&gt;&#x9;&lt;/span&gt;&lt;span style=&quot;white-space: pre;&quot;&gt;&#x9;&lt;/span&gt;adduser username sudo" style="text;strokeColor=none;fillColor=none;align=left;verticalAlign=middle;spacingLeft=4;spacingRight=4;overflow=hidden;points=[[0,0.5],[1,0.5]];portConstraint=eastwest;rotatable=0;whiteSpace=wrap;html=1;" parent="3vjjs1ufuwTcPi8iLulX-12" vertex="1">
          <mxGeometry y="150" width="400" height="30" as="geometry" />
        </mxCell>
        <mxCell id="3vjjs1ufuwTcPi8iLulX-19" value="getent to check username in group sudo" style="text;strokeColor=none;fillColor=none;align=left;verticalAlign=middle;spacingLeft=4;spacingRight=4;overflow=hidden;points=[[0,0.5],[1,0.5]];portConstraint=eastwest;rotatable=0;whiteSpace=wrap;html=1;" parent="3vjjs1ufuwTcPi8iLulX-12" vertex="1">
          <mxGeometry y="180" width="400" height="30" as="geometry" />
        </mxCell>
        <mxCell id="3vjjs1ufuwTcPi8iLulX-16" value="&lt;b&gt;exit root, and ssh username@vm ip (ip addr to see the ip)&lt;/b&gt;" style="text;strokeColor=none;fillColor=none;align=left;verticalAlign=middle;spacingLeft=4;spacingRight=4;overflow=hidden;points=[[0,0.5],[1,0.5]];portConstraint=eastwest;rotatable=0;whiteSpace=wrap;html=1;" parent="uMcUcsL96oLUDKpdZnBT-2" vertex="1">
          <mxGeometry y="266" width="750" height="30" as="geometry" />
        </mxCell>
        <mxCell id="3vjjs1ufuwTcPi8iLulX-21" value="you must now use sudo before adding , switching between root and username (su -) to root (su - username) to username, (whoami) shows which login" style="text;strokeColor=none;fillColor=none;align=left;verticalAlign=middle;spacingLeft=4;spacingRight=4;overflow=hidden;points=[[0,0.5],[1,0.5]];portConstraint=eastwest;rotatable=0;whiteSpace=wrap;html=1;" parent="uMcUcsL96oLUDKpdZnBT-2" vertex="1">
          <mxGeometry y="296" width="750" height="30" as="geometry" />
        </mxCell>
        <mxCell id="uMcUcsL96oLUDKpdZnBT-27" value="set up git/vogsphere" style="swimlane;fontStyle=0;childLayout=stackLayout;horizontal=1;startSize=30;horizontalStack=0;resizeParent=1;resizeParentMax=0;resizeLast=0;collapsible=1;marginBottom=0;whiteSpace=wrap;html=1;fillColor=none;" parent="uMcUcsL96oLUDKpdZnBT-2" vertex="1">
          <mxGeometry y="326" width="750" height="350" as="geometry">
            <mxRectangle y="496" width="750" height="30" as="alternateBounds" />
          </mxGeometry>
        </mxCell>
        <mxCell id="uMcUcsL96oLUDKpdZnBT-28" value="apk update &amp;amp;&amp;amp; apk add git" style="text;strokeColor=none;fillColor=none;align=left;verticalAlign=middle;spacingLeft=4;spacingRight=4;overflow=hidden;points=[[0,0.5],[1,0.5]];portConstraint=eastwest;rotatable=0;whiteSpace=wrap;html=1;" parent="uMcUcsL96oLUDKpdZnBT-27" vertex="1">
          <mxGeometry y="30" width="750" height="30" as="geometry" />
        </mxCell>
        <mxCell id="uMcUcsL96oLUDKpdZnBT-29" value="apk add git" style="text;strokeColor=none;fillColor=none;align=left;verticalAlign=middle;spacingLeft=4;spacingRight=4;overflow=hidden;points=[[0,0.5],[1,0.5]];portConstraint=eastwest;rotatable=0;whiteSpace=wrap;html=1;" parent="uMcUcsL96oLUDKpdZnBT-27" vertex="1">
          <mxGeometry y="60" width="750" height="30" as="geometry" />
        </mxCell>
        <mxCell id="uMcUcsL96oLUDKpdZnBT-30" value="&lt;div&gt;git config --global user.name &quot;Your Name&quot;&lt;/div&gt;&lt;div&gt;&lt;br&gt;&lt;/div&gt;" style="text;strokeColor=none;fillColor=none;align=left;verticalAlign=middle;spacingLeft=4;spacingRight=4;overflow=hidden;points=[[0,0.5],[1,0.5]];portConstraint=eastwest;rotatable=0;whiteSpace=wrap;html=1;" parent="uMcUcsL96oLUDKpdZnBT-27" vertex="1">
          <mxGeometry y="90" width="750" height="30" as="geometry" />
        </mxCell>
        <mxCell id="uMcUcsL96oLUDKpdZnBT-32" value="&lt;div&gt;git config --global user.email &quot;youremail@example.com&quot;&lt;/div&gt;&lt;div&gt;&lt;br&gt;&lt;/div&gt;" style="text;strokeColor=none;fillColor=none;align=left;verticalAlign=middle;spacingLeft=4;spacingRight=4;overflow=hidden;points=[[0,0.5],[1,0.5]];portConstraint=eastwest;rotatable=0;whiteSpace=wrap;html=1;" parent="uMcUcsL96oLUDKpdZnBT-27" vertex="1">
          <mxGeometry y="120" width="750" height="30" as="geometry" />
        </mxCell>
        <mxCell id="uMcUcsL96oLUDKpdZnBT-33" value="&lt;div&gt;git config --list (to see you have done correct input)&lt;/div&gt;&lt;div&gt;&lt;br&gt;&lt;/div&gt;" style="text;strokeColor=none;fillColor=none;align=left;verticalAlign=middle;spacingLeft=4;spacingRight=4;overflow=hidden;points=[[0,0.5],[1,0.5]];portConstraint=eastwest;rotatable=0;whiteSpace=wrap;html=1;" parent="uMcUcsL96oLUDKpdZnBT-27" vertex="1">
          <mxGeometry y="150" width="750" height="30" as="geometry" />
        </mxCell>
        <mxCell id="AIIcIq61d3kpki7jh9vR-0" value="create new key for vm and connect to private git" style="text;strokeColor=none;fillColor=none;align=left;verticalAlign=middle;spacingLeft=4;spacingRight=4;overflow=hidden;points=[[0,0.5],[1,0.5]];portConstraint=eastwest;rotatable=0;whiteSpace=wrap;html=1;" vertex="1" parent="uMcUcsL96oLUDKpdZnBT-27">
          <mxGeometry y="180" width="750" height="30" as="geometry" />
        </mxCell>
        <mxCell id="uMcUcsL96oLUDKpdZnBT-34" value="&lt;div&gt;ssh-keygen -t rsa -b 4096 -C &quot;vm@example.com&quot;&lt;/div&gt;&lt;div&gt;(to gen vms own key)&lt;/div&gt;" style="text;strokeColor=none;fillColor=none;align=left;verticalAlign=middle;spacingLeft=4;spacingRight=4;overflow=hidden;points=[[0,0.5],[1,0.5]];portConstraint=eastwest;rotatable=0;whiteSpace=wrap;html=1;" parent="uMcUcsL96oLUDKpdZnBT-27" vertex="1">
          <mxGeometry y="210" width="750" height="50" as="geometry" />
        </mxCell>
        <mxCell id="uMcUcsL96oLUDKpdZnBT-35" value="&lt;div&gt;cat ~/.ssh/id_rsa.pub&amp;nbsp;&lt;span style=&quot;background-color: transparent; color: light-dark(rgb(0, 0, 0), rgb(255, 255, 255));&quot;&gt;paste into git ssh keys&lt;/span&gt;&lt;/div&gt;" style="text;strokeColor=none;fillColor=none;align=left;verticalAlign=middle;spacingLeft=4;spacingRight=4;overflow=hidden;points=[[0,0.5],[1,0.5]];portConstraint=eastwest;rotatable=0;whiteSpace=wrap;html=1;" parent="uMcUcsL96oLUDKpdZnBT-27" vertex="1">
          <mxGeometry y="260" width="750" height="30" as="geometry" />
        </mxCell>
        <mxCell id="uMcUcsL96oLUDKpdZnBT-36" value="&lt;div&gt;ssh -T git@github.com&lt;/div&gt;&lt;div&gt;(test connection )&lt;/div&gt;" style="text;strokeColor=none;fillColor=none;align=left;verticalAlign=middle;spacingLeft=4;spacingRight=4;overflow=hidden;points=[[0,0.5],[1,0.5]];portConstraint=eastwest;rotatable=0;whiteSpace=wrap;html=1;" parent="uMcUcsL96oLUDKpdZnBT-27" vertex="1">
          <mxGeometry y="290" width="750" height="30" as="geometry" />
        </mxCell>
        <mxCell id="uMcUcsL96oLUDKpdZnBT-37" value="rinse and repeat for username , if this was done for root if for root is required" style="text;strokeColor=none;fillColor=none;align=left;verticalAlign=middle;spacingLeft=4;spacingRight=4;overflow=hidden;points=[[0,0.5],[1,0.5]];portConstraint=eastwest;rotatable=0;whiteSpace=wrap;html=1;" parent="uMcUcsL96oLUDKpdZnBT-27" vertex="1">
          <mxGeometry y="320" width="750" height="30" as="geometry" />
        </mxCell>
        <mxCell id="uMcUcsL96oLUDKpdZnBT-10" value="sudo apk update" style="text;strokeColor=none;fillColor=none;align=left;verticalAlign=top;spacingLeft=4;spacingRight=4;overflow=hidden;rotatable=0;points=[[0,0.5],[1,0.5]];portConstraint=eastwest;whiteSpace=wrap;html=1;" parent="uMcUcsL96oLUDKpdZnBT-2" vertex="1">
          <mxGeometry y="676" width="750" height="26" as="geometry" />
        </mxCell>
        <mxCell id="uMcUcsL96oLUDKpdZnBT-38" value="apk add make" style="text;strokeColor=none;fillColor=none;align=left;verticalAlign=middle;spacingLeft=4;spacingRight=4;overflow=hidden;points=[[0,0.5],[1,0.5]];portConstraint=eastwest;rotatable=0;whiteSpace=wrap;html=1;" parent="uMcUcsL96oLUDKpdZnBT-2" vertex="1">
          <mxGeometry y="702" width="750" height="30" as="geometry" />
        </mxCell>
        <mxCell id="3vjjs1ufuwTcPi8iLulX-22" value="docker set up" style="swimlane;fontStyle=0;childLayout=stackLayout;horizontal=1;startSize=30;horizontalStack=0;resizeParent=1;resizeParentMax=0;resizeLast=0;collapsible=1;marginBottom=0;whiteSpace=wrap;html=1;swimlaneFillColor=#FEF6FF;fillColor=none;" parent="uMcUcsL96oLUDKpdZnBT-2" vertex="1" collapsed="1">
          <mxGeometry y="732" width="750" height="30" as="geometry">
            <mxRectangle x="1117.5" y="-1840" width="557.5" height="260" as="alternateBounds" />
          </mxGeometry>
        </mxCell>
        <mxCell id="3vjjs1ufuwTcPi8iLulX-32" value="sudo apk add docker and apk docker-compose" style="text;strokeColor=none;fillColor=none;align=left;verticalAlign=middle;spacingLeft=4;spacingRight=4;overflow=hidden;points=[[0,0.5],[1,0.5]];portConstraint=eastwest;rotatable=0;whiteSpace=wrap;html=1;" parent="3vjjs1ufuwTcPi8iLulX-22" vertex="1">
          <mxGeometry y="30" width="557.5" height="30" as="geometry" />
        </mxCell>
        <mxCell id="3vjjs1ufuwTcPi8iLulX-23" value="sudo rc-update add docker boot (to run at boot)" style="text;strokeColor=none;fillColor=none;align=left;verticalAlign=middle;spacingLeft=4;spacingRight=4;overflow=hidden;points=[[0,0.5],[1,0.5]];portConstraint=eastwest;rotatable=0;whiteSpace=wrap;html=1;" parent="3vjjs1ufuwTcPi8iLulX-22" vertex="1">
          <mxGeometry y="60" width="557.5" height="30" as="geometry" />
        </mxCell>
        <mxCell id="3vjjs1ufuwTcPi8iLulX-24" value="sudo service docker start" style="text;strokeColor=none;fillColor=none;align=left;verticalAlign=middle;spacingLeft=4;spacingRight=4;overflow=hidden;points=[[0,0.5],[1,0.5]];portConstraint=eastwest;rotatable=0;whiteSpace=wrap;html=1;" parent="3vjjs1ufuwTcPi8iLulX-22" vertex="1">
          <mxGeometry y="90" width="557.5" height="30" as="geometry" />
        </mxCell>
        <mxCell id="3vjjs1ufuwTcPi8iLulX-25" value="sudo addgroup username docker" style="text;strokeColor=none;fillColor=none;align=left;verticalAlign=middle;spacingLeft=4;spacingRight=4;overflow=hidden;points=[[0,0.5],[1,0.5]];portConstraint=eastwest;rotatable=0;whiteSpace=wrap;html=1;" parent="3vjjs1ufuwTcPi8iLulX-22" vertex="1">
          <mxGeometry y="120" width="557.5" height="30" as="geometry" />
        </mxCell>
        <mxCell id="3vjjs1ufuwTcPi8iLulX-26" value="getent group docker (to see this was apllieied)" style="text;strokeColor=none;fillColor=none;align=left;verticalAlign=middle;spacingLeft=4;spacingRight=4;overflow=hidden;points=[[0,0.5],[1,0.5]];portConstraint=eastwest;rotatable=0;whiteSpace=wrap;html=1;" parent="3vjjs1ufuwTcPi8iLulX-22" vertex="1">
          <mxGeometry y="150" width="557.5" height="30" as="geometry" />
        </mxCell>
        <mxCell id="3vjjs1ufuwTcPi8iLulX-29" value="&lt;div&gt;sudo visudo : add line: username ALL=(ALL) NOPASSWD: &amp;nbsp;/usr/bin/make, /usr/bin/docker, /usr/bin/docker-compose (this is to allow docker commands without constant sudo prompting for user)&lt;/div&gt;&lt;div&gt;&lt;br&gt;&lt;/div&gt;" style="text;strokeColor=none;fillColor=none;align=left;verticalAlign=middle;spacingLeft=4;spacingRight=4;overflow=hidden;points=[[0,0.5],[1,0.5]];portConstraint=eastwest;rotatable=0;whiteSpace=wrap;html=1;" parent="3vjjs1ufuwTcPi8iLulX-22" vertex="1">
          <mxGeometry y="180" width="557.5" height="50" as="geometry" />
        </mxCell>
        <mxCell id="3vjjs1ufuwTcPi8iLulX-30" value="log out (su -) then log back in (su - username) to refersh" style="text;strokeColor=none;fillColor=none;align=left;verticalAlign=middle;spacingLeft=4;spacingRight=4;overflow=hidden;points=[[0,0.5],[1,0.5]];portConstraint=eastwest;rotatable=0;whiteSpace=wrap;html=1;" parent="3vjjs1ufuwTcPi8iLulX-22" vertex="1">
          <mxGeometry y="230" width="557.5" height="30" as="geometry" />
        </mxCell>
        <mxCell id="uMcUcsL96oLUDKpdZnBT-12" value="stop here for a moment , we now create the Makefile, yaml file, dockerfiles&amp;nbsp;" style="text;strokeColor=none;fillColor=none;align=left;verticalAlign=middle;spacingLeft=4;spacingRight=4;overflow=hidden;points=[[0,0.5],[1,0.5]];portConstraint=eastwest;rotatable=0;whiteSpace=wrap;html=1;fontStyle=1;textShadow=1;" parent="uMcUcsL96oLUDKpdZnBT-2" vertex="1">
          <mxGeometry y="762" width="750" height="30" as="geometry" />
        </mxCell>
        <mxCell id="3vjjs1ufuwTcPi8iLulX-33" value="loading a gui for webiste access through vm" style="swimlane;fontStyle=0;childLayout=stackLayout;horizontal=1;startSize=30;horizontalStack=0;resizeParent=1;resizeParentMax=0;resizeLast=0;collapsible=1;marginBottom=0;whiteSpace=wrap;html=1;" parent="uMcUcsL96oLUDKpdZnBT-2" vertex="1" collapsed="1">
          <mxGeometry y="792" width="750" height="30" as="geometry">
            <mxRectangle y="642" width="750" height="182" as="alternateBounds" />
          </mxGeometry>
        </mxCell>
        <mxCell id="3vjjs1ufuwTcPi8iLulX-34" value="&lt;div&gt;apk add xfce4 xfce4-terminal&lt;/div&gt;&lt;div&gt;&lt;br&gt;&lt;/div&gt;" style="text;strokeColor=none;fillColor=none;align=left;verticalAlign=middle;spacingLeft=4;spacingRight=4;overflow=hidden;points=[[0,0.5],[1,0.5]];portConstraint=eastwest;rotatable=0;whiteSpace=wrap;html=1;" parent="3vjjs1ufuwTcPi8iLulX-33" vertex="1">
          <mxGeometry y="30" width="750" height="30" as="geometry" />
        </mxCell>
        <mxCell id="3vjjs1ufuwTcPi8iLulX-35" value="&lt;div&gt;apk add xorg-server (for graphics rendering)&lt;/div&gt;" style="text;strokeColor=none;fillColor=none;align=left;verticalAlign=middle;spacingLeft=4;spacingRight=4;overflow=hidden;points=[[0,0.5],[1,0.5]];portConstraint=eastwest;rotatable=0;whiteSpace=wrap;html=1;" parent="3vjjs1ufuwTcPi8iLulX-33" vertex="1">
          <mxGeometry y="60" width="750" height="30" as="geometry" />
        </mxCell>
        <mxCell id="3vjjs1ufuwTcPi8iLulX-39" value="&lt;div&gt;apk add lightdm lightdm-gtk-greeter (for a login manager , helpfull for gui on startup)&lt;/div&gt;" style="text;strokeColor=none;fillColor=none;align=left;verticalAlign=middle;spacingLeft=4;spacingRight=4;overflow=hidden;points=[[0,0.5],[1,0.5]];portConstraint=eastwest;rotatable=0;whiteSpace=wrap;html=1;" parent="3vjjs1ufuwTcPi8iLulX-33" vertex="1">
          <mxGeometry y="90" width="750" height="30" as="geometry" />
        </mxCell>
        <mxCell id="3vjjs1ufuwTcPi8iLulX-42" value="&lt;div&gt;setup-devd udev&lt;/div&gt;&lt;div&gt;rc-update add elogind&lt;/div&gt;&lt;div&gt;rc-update add lightdm&lt;/div&gt;&lt;div&gt;reboot&lt;/div&gt;" style="text;strokeColor=none;fillColor=none;align=left;verticalAlign=middle;spacingLeft=4;spacingRight=4;overflow=hidden;points=[[0,0.5],[1,0.5]];portConstraint=eastwest;rotatable=0;whiteSpace=wrap;html=1;" parent="3vjjs1ufuwTcPi8iLulX-33" vertex="1">
          <mxGeometry y="120" width="750" height="62" as="geometry" />
        </mxCell>
        <mxCell id="uMcUcsL96oLUDKpdZnBT-39" value="service start docker (to get the ball rolling)" style="text;strokeColor=none;fillColor=none;align=left;verticalAlign=middle;spacingLeft=4;spacingRight=4;overflow=hidden;points=[[0,0.5],[1,0.5]];portConstraint=eastwest;rotatable=0;whiteSpace=wrap;html=1;" parent="uMcUcsL96oLUDKpdZnBT-2" vertex="1">
          <mxGeometry y="822" width="750" height="30" as="geometry" />
        </mxCell>
        <mxCell id="uMcUcsL96oLUDKpdZnBT-31" value="physical machine :: file transfer: scp path/to/file.txt user@vm_ip:~/wherever" style="text;strokeColor=none;fillColor=none;align=left;verticalAlign=middle;spacingLeft=4;spacingRight=4;overflow=hidden;points=[[0,0.5],[1,0.5]];portConstraint=eastwest;rotatable=0;whiteSpace=wrap;html=1;" parent="WIyWlLk6GJQsqaUBKTNV-1" vertex="1">
          <mxGeometry x="257.5" y="-978" width="710" height="30" as="geometry" />
        </mxCell>
        <mxCell id="uMcUcsL96oLUDKpdZnBT-14" value="service sshd start , then , rc-update add sshd (ssh starts on boot)" style="text;strokeColor=none;fillColor=none;align=left;verticalAlign=middle;spacingLeft=4;spacingRight=4;overflow=hidden;points=[[0,0.5],[1,0.5]];portConstraint=eastwest;rotatable=0;whiteSpace=wrap;html=1;" parent="WIyWlLk6GJQsqaUBKTNV-1" vertex="1">
          <mxGeometry x="-730" y="-2050" width="750" height="30" as="geometry" />
        </mxCell>
        <mxCell id="uMcUcsL96oLUDKpdZnBT-19" value="scp -rP 2222 /home/user/testing/inception root@localhost:~/" style="text;strokeColor=none;fillColor=none;align=left;verticalAlign=middle;spacingLeft=4;spacingRight=4;overflow=hidden;points=[[0,0.5],[1,0.5]];portConstraint=eastwest;rotatable=0;whiteSpace=wrap;html=1;" parent="WIyWlLk6GJQsqaUBKTNV-1" vertex="1">
          <mxGeometry x="-940" y="-1199" width="750" height="30" as="geometry" />
        </mxCell>
        <mxCell id="uMcUcsL96oLUDKpdZnBT-16" value="passwd for you root, vi /etc/ssh/sshd_config to allow rootlogin and uncomment port 22, service sshd restart" style="text;strokeColor=none;fillColor=none;align=left;verticalAlign=middle;spacingLeft=4;spacingRight=4;overflow=hidden;points=[[0,0.5],[1,0.5]];portConstraint=eastwest;rotatable=0;whiteSpace=wrap;html=1;" parent="WIyWlLk6GJQsqaUBKTNV-1" vertex="1">
          <mxGeometry x="-320" y="-2270" width="750" height="20" as="geometry" />
        </mxCell>
        <mxCell id="uMcUcsL96oLUDKpdZnBT-17" value="here" style="text;strokeColor=none;fillColor=none;align=left;verticalAlign=middle;spacingLeft=4;spacingRight=4;overflow=hidden;points=[[0,0.5],[1,0.5]];portConstraint=eastwest;rotatable=0;whiteSpace=wrap;html=1;" parent="WIyWlLk6GJQsqaUBKTNV-1" vertex="1">
          <mxGeometry x="-920" y="-1250" width="750" height="30" as="geometry" />
        </mxCell>
        <mxCell id="uMcUcsL96oLUDKpdZnBT-18" value="&lt;div&gt;if you need to change the oldhost key entry&amp;nbsp; for vm&lt;/div&gt;ssh-keygen -R vm-ip&lt;div&gt;then ssh root@vm-ip and continue&lt;/div&gt;" style="text;strokeColor=none;fillColor=none;align=left;verticalAlign=middle;spacingLeft=4;spacingRight=4;overflow=hidden;points=[[0,0.5],[1,0.5]];portConstraint=eastwest;rotatable=0;whiteSpace=wrap;html=1;" parent="WIyWlLk6GJQsqaUBKTNV-1" vertex="1">
          <mxGeometry x="-960" y="-1320" width="750" height="60" as="geometry" />
        </mxCell>
        <mxCell id="3vjjs1ufuwTcPi8iLulX-28" value="" style="endArrow=classic;html=1;rounded=0;entryX=0.221;entryY=-0.005;entryDx=0;entryDy=0;entryPerimeter=0;exitX=0.465;exitY=0.989;exitDx=0;exitDy=0;exitPerimeter=0;" parent="WIyWlLk6GJQsqaUBKTNV-1" source="VuhiG2OMYxqmFF7oU0-H-41" target="uMcUcsL96oLUDKpdZnBT-2" edge="1">
          <mxGeometry width="50" height="50" relative="1" as="geometry">
            <mxPoint x="360" y="-2170" as="sourcePoint" />
            <mxPoint x="390" y="-2110" as="targetPoint" />
          </mxGeometry>
        </mxCell>
        <mxCell id="uMcUcsL96oLUDKpdZnBT-4" value="run alpine-setup --&amp;gt; will add these steps later, mostly self explanatory" style="text;strokeColor=none;fillColor=none;align=left;verticalAlign=middle;spacingLeft=4;spacingRight=4;overflow=hidden;points=[[0,0.5],[1,0.5]];portConstraint=eastwest;rotatable=0;whiteSpace=wrap;html=1;" parent="WIyWlLk6GJQsqaUBKTNV-1" vertex="1">
          <mxGeometry x="800" y="-2100" width="750" height="30" as="geometry" />
        </mxCell>
        <mxCell id="uMcUcsL96oLUDKpdZnBT-21" value="set up ssh --&amp;gt;&amp;gt; will add these steps later.&amp;nbsp;" style="text;strokeColor=none;fillColor=none;align=left;verticalAlign=middle;spacingLeft=4;spacingRight=4;overflow=hidden;points=[[0,0.5],[1,0.5]];portConstraint=eastwest;rotatable=0;whiteSpace=wrap;html=1;" parent="WIyWlLk6GJQsqaUBKTNV-1" vertex="1">
          <mxGeometry x="800" y="-2060" width="750" height="30" as="geometry" />
        </mxCell>
        <mxCell id="3vjjs1ufuwTcPi8iLulX-10" value="apk add : sudo, --&amp;gt;&amp;gt; sudo privileges steps here&amp;nbsp;" style="text;strokeColor=none;fillColor=none;align=left;verticalAlign=middle;spacingLeft=4;spacingRight=4;overflow=hidden;points=[[0,0.5],[1,0.5]];portConstraint=eastwest;rotatable=0;whiteSpace=wrap;html=1;" parent="WIyWlLk6GJQsqaUBKTNV-1" vertex="1">
          <mxGeometry x="850" y="-2020" width="750" height="30" as="geometry" />
        </mxCell>
        <mxCell id="3vjjs1ufuwTcPi8iLulX-11" value="set up git --&amp;gt;&amp;gt; instructions" style="text;strokeColor=none;fillColor=none;align=left;verticalAlign=middle;spacingLeft=4;spacingRight=4;overflow=hidden;points=[[0,0.5],[1,0.5]];portConstraint=eastwest;rotatable=0;whiteSpace=wrap;html=1;" parent="WIyWlLk6GJQsqaUBKTNV-1" vertex="1">
          <mxGeometry x="880" y="-1990" width="750" height="30" as="geometry" />
        </mxCell>
        <mxCell id="3vjjs1ufuwTcPi8iLulX-37" value="&lt;div&gt;startxfce4 (launch the gui)&lt;/div&gt;" style="text;strokeColor=none;fillColor=none;align=left;verticalAlign=middle;spacingLeft=4;spacingRight=4;overflow=hidden;points=[[0,0.5],[1,0.5]];portConstraint=eastwest;rotatable=0;whiteSpace=wrap;html=1;" parent="WIyWlLk6GJQsqaUBKTNV-1" vertex="1">
          <mxGeometry x="467.5" y="-1026" width="660" height="30" as="geometry" />
        </mxCell>
        <mxCell id="3vjjs1ufuwTcPi8iLulX-40" value="&lt;div&gt;rc-update add lightdm (enable on startup)&lt;/div&gt;" style="text;strokeColor=none;fillColor=none;align=left;verticalAlign=middle;spacingLeft=4;spacingRight=4;overflow=hidden;points=[[0,0.5],[1,0.5]];portConstraint=eastwest;rotatable=0;whiteSpace=wrap;html=1;" parent="WIyWlLk6GJQsqaUBKTNV-1" vertex="1">
          <mxGeometry x="467.5" y="-1050" width="500" height="30" as="geometry" />
        </mxCell>
        <mxCell id="3vjjs1ufuwTcPi8iLulX-41" value="&lt;div&gt;sudo apk add xorg-server xfce4 xfce4-terminal lightdm lightdm-gtk-greeter xf86-input-libinput elogind&lt;/div&gt;&lt;div&gt;&lt;br&gt;&lt;/div&gt;" style="text;strokeColor=none;fillColor=none;align=left;verticalAlign=middle;spacingLeft=4;spacingRight=4;overflow=hidden;points=[[0,0.5],[1,0.5]];portConstraint=eastwest;rotatable=0;whiteSpace=wrap;html=1;" parent="WIyWlLk6GJQsqaUBKTNV-1" vertex="1">
          <mxGeometry x="325" y="-996" width="970" height="30" as="geometry" />
        </mxCell>
        <mxCell id="3vjjs1ufuwTcPi8iLulX-36" value="&lt;div&gt;apk add firefox OR&amp;nbsp;&lt;span style=&quot;background-color: transparent;&quot;&gt;apk add midori (choice is yours)&lt;/span&gt;&lt;/div&gt;" style="text;strokeColor=none;fillColor=none;align=left;verticalAlign=middle;spacingLeft=4;spacingRight=4;overflow=hidden;points=[[0,0.5],[1,0.5]];portConstraint=eastwest;rotatable=0;whiteSpace=wrap;html=1;" parent="WIyWlLk6GJQsqaUBKTNV-1" vertex="1">
          <mxGeometry x="1241" y="-1110" width="670" height="30" as="geometry" />
        </mxCell>
        <mxCell id="AIIcIq61d3kpki7jh9vR-1" value="connecting to vogsphere" style="text;strokeColor=none;fillColor=none;align=left;verticalAlign=middle;spacingLeft=4;spacingRight=4;overflow=hidden;points=[[0,0.5],[1,0.5]];portConstraint=eastwest;rotatable=0;whiteSpace=wrap;html=1;" vertex="1" parent="WIyWlLk6GJQsqaUBKTNV-1">
          <mxGeometry x="461" y="-2210" width="228" height="30" as="geometry" />
        </mxCell>
        <mxCell id="AIIcIq61d3kpki7jh9vR-2" value="scp&amp;nbsp;~/.ssh/id_rsa user@vm_ip:/home/username/.ssh/id_rsa_vogsphere&lt;div&gt;(rename required if you have 2 keys)&lt;/div&gt;" style="text;strokeColor=none;fillColor=none;align=left;verticalAlign=middle;spacingLeft=4;spacingRight=4;overflow=hidden;points=[[0,0.5],[1,0.5]];portConstraint=eastwest;rotatable=0;whiteSpace=wrap;html=1;" vertex="1" parent="WIyWlLk6GJQsqaUBKTNV-1">
          <mxGeometry x="414" y="-2180" width="520" height="30" as="geometry" />
        </mxCell>
        <mxCell id="AIIcIq61d3kpki7jh9vR-3" value="scp&amp;nbsp;~/.ssh/id_rsa.pub user@vm_ip:/home/username/.ssh/id_rsa_vogsphere.pub&lt;div&gt;(rename required if you have 2 keys)&lt;/div&gt;" style="text;strokeColor=none;fillColor=none;align=left;verticalAlign=middle;spacingLeft=4;spacingRight=4;overflow=hidden;points=[[0,0.5],[1,0.5]];portConstraint=eastwest;rotatable=0;whiteSpace=wrap;html=1;" vertex="1" parent="WIyWlLk6GJQsqaUBKTNV-1">
          <mxGeometry x="380" y="-2140" width="520" height="30" as="geometry" />
        </mxCell>
        <mxCell id="AIIcIq61d3kpki7jh9vR-4" value="vim ~/ssh/config (create file if it dosnt exist with touch)" style="text;strokeColor=none;fillColor=none;align=left;verticalAlign=middle;spacingLeft=4;spacingRight=4;overflow=hidden;points=[[0,0.5],[1,0.5]];portConstraint=eastwest;rotatable=0;whiteSpace=wrap;html=1;" vertex="1" parent="WIyWlLk6GJQsqaUBKTNV-1">
          <mxGeometry x="380" y="-2110" width="390" height="30" as="geometry" />
        </mxCell>
        <mxCell id="AIIcIq61d3kpki7jh9vR-5" value="&lt;div&gt;Host vogsphere&lt;/div&gt;&lt;div&gt;&amp;nbsp; &amp;nbsp; HostName vogsphere-v2.hive.fi&lt;/div&gt;&lt;div&gt;&amp;nbsp; &amp;nbsp; User git&lt;/div&gt;&lt;div&gt;&amp;nbsp; &amp;nbsp; IdentityFile ~/.ssh/id_rsa_vogsphere&lt;/div&gt;&lt;div&gt;&lt;br&gt;&lt;/div&gt;&lt;div&gt;Host github&lt;/div&gt;&lt;div&gt;&amp;nbsp; &amp;nbsp; HostName github.com&lt;/div&gt;&lt;div&gt;&amp;nbsp; &amp;nbsp; User git&lt;/div&gt;&lt;div&gt;&amp;nbsp; &amp;nbsp; IdentityFile ~/.ssh/id_rsa&lt;/div&gt;&lt;div&gt;&lt;br&gt;&lt;/div&gt;" style="text;strokeColor=none;fillColor=none;align=left;verticalAlign=middle;spacingLeft=4;spacingRight=4;overflow=hidden;points=[[0,0.5],[1,0.5]];portConstraint=eastwest;rotatable=0;whiteSpace=wrap;html=1;" vertex="1" parent="WIyWlLk6GJQsqaUBKTNV-1">
          <mxGeometry x="387.5" y="-2090" width="490" height="170" as="geometry" />
        </mxCell>
        <mxCell id="AIIcIq61d3kpki7jh9vR-6" value="GIT_SSH_COMMAND=&quot;ssh -i ~/.ssh/id_rsa_vogsphere&quot; git clone (the repo)" style="text;strokeColor=none;fillColor=none;align=left;verticalAlign=middle;spacingLeft=4;spacingRight=4;overflow=hidden;points=[[0,0.5],[1,0.5]];portConstraint=eastwest;rotatable=0;whiteSpace=wrap;html=1;" vertex="1" parent="WIyWlLk6GJQsqaUBKTNV-1">
          <mxGeometry x="397.5" y="-1950" width="480" height="30" as="geometry" />
        </mxCell>
        <mxCell id="AIIcIq61d3kpki7jh9vR-7" value="&lt;div&gt;cd into the repo then : git remote set-url origin vogsphere:vogsphere/intra-uid from clone&lt;/div&gt;&lt;div&gt;&lt;br&gt;&lt;/div&gt;" style="text;strokeColor=none;fillColor=none;align=left;verticalAlign=middle;spacingLeft=4;spacingRight=4;overflow=hidden;points=[[0,0.5],[1,0.5]];portConstraint=eastwest;rotatable=0;whiteSpace=wrap;html=1;" vertex="1" parent="WIyWlLk6GJQsqaUBKTNV-1">
          <mxGeometry x="395" y="-1920" width="400" height="30" as="geometry" />
        </mxCell>
      </root>
    </mxGraphModel>
  </diagram>
</mxfile>
